<svg width="28" height="28" viewBox="0 0 28 28" fill="none" xmlns="http://www.w3.org/2000/svg">
<g clip-path="url(#clip0_218_1249)">
<path d="M7.21565 15.1167C7.73737 15.1167 8.16031 14.6938 8.16031 14.1721C8.16031 13.6504 7.73737 13.2274 7.21565 13.2274C6.69393 13.2274 6.271 13.6504 6.271 14.1721C6.271 14.6938 6.69393 15.1167 7.21565 15.1167Z" stroke="white" stroke-width="1.51145" stroke-linecap="round" stroke-linejoin="round"/>
<path d="M13.3563 15.1167C13.878 15.1167 14.3009 14.6938 14.3009 14.1721C14.3009 13.6504 13.878 13.2274 13.3563 13.2274C12.8346 13.2274 12.4116 13.6504 12.4116 14.1721C12.4116 14.6938 12.8346 15.1167 13.3563 15.1167Z" stroke="white" stroke-width="1.51145" stroke-linecap="round" stroke-linejoin="round"/>
<path d="M19.4964 15.1167C20.0181 15.1167 20.4411 14.6938 20.4411 14.1721C20.4411 13.6504 20.0181 13.2274 19.4964 13.2274C18.9747 13.2274 18.5518 13.6504 18.5518 14.1721C18.5518 14.6938 18.9747 15.1167 19.4964 15.1167Z" stroke="white" stroke-width="1.51145" stroke-linecap="round" stroke-linejoin="round"/>
<path d="M13.8284 1.89142C11.607 1.89211 9.42741 2.49532 7.52175 3.63679C5.61609 4.77827 4.05572 6.41526 3.00684 8.37342C1.95797 10.3316 1.45987 12.5376 1.56559 14.7564C1.67131 16.9753 2.3769 19.1239 3.6072 20.9735L1.54785 26.4525L8.44384 25.2055C10.1044 26.017 11.9266 26.4432 13.7748 26.4523C15.623 26.4615 17.4494 26.0534 19.1179 25.2584C20.7864 24.4634 22.2539 23.3021 23.4111 21.861C24.5683 20.42 25.3853 18.7363 25.8012 16.9355C26.2171 15.1347 26.2212 13.2632 25.8131 11.4607C25.4051 9.65807 24.5954 7.97083 23.4445 6.52471C22.2936 5.07859 20.8312 3.91088 19.1662 3.10865C17.5012 2.30641 15.6766 1.89033 13.8284 1.89142V1.89142Z" stroke="white" stroke-width="1.51145" stroke-linecap="round" stroke-linejoin="round"/>
</g>
<defs>
<clipPath id="clip0_218_1249">
<rect width="26.4504" height="26.4504" fill="white" transform="translate(0.603027 0.946716)"/>
</clipPath>
</defs>
</svg>
