<svg width="24" height="24" viewBox="0 0 24 24" fill="none" xmlns="http://www.w3.org/2000/svg">
<path d="M20.8126 10.74C21.1761 9.90279 21.3066 8.98285 21.1901 8.07756C21.0736 7.17226 20.7146 6.3153 20.1509 5.59737C19.5873 4.87943 18.84 4.32724 17.9883 3.99924C17.1365 3.67123 16.2119 3.57961 15.3123 3.73408C14.7686 3.00195 14.0373 2.43027 13.1955 2.07943C12.3538 1.72859 11.433 1.61162 10.5303 1.74088C9.62755 1.87014 8.77652 2.24082 8.06708 2.81378C7.35764 3.38673 6.81613 4.14068 6.49976 4.99595C5.59376 5.10077 4.7329 5.44838 4.00816 6.00207C3.28342 6.55576 2.72172 7.29495 2.38242 8.14153C2.04312 8.98811 1.93882 9.91062 2.08054 10.8116C2.22226 11.7125 2.60475 12.5585 3.18757 13.26C2.89797 13.9276 2.75569 14.6498 2.77042 15.3773C2.78516 16.1048 2.95656 16.8206 3.27296 17.4759C3.58935 18.1312 4.0433 18.7106 4.60387 19.1746C5.16444 19.6386 5.81844 19.9763 6.52132 20.1647C6.95011 20.2813 7.39228 20.3415 7.83664 20.3438C8.12133 20.3438 8.4055 20.3193 8.68601 20.2706C9.22968 21.0028 9.96101 21.5745 10.8027 21.9253C11.6445 22.2761 12.5653 22.3931 13.468 22.2638C14.3707 22.1346 15.2218 21.7639 15.9312 21.1909C16.6406 20.618 17.1821 19.864 17.4985 19.0088C18.4055 18.9048 19.2675 18.5575 19.9933 18.0036C20.719 17.4498 21.2815 16.71 21.6211 15.8626C21.9608 15.0152 22.0649 14.0917 21.9226 13.1899C21.7803 12.2881 21.3967 11.4416 20.8126 10.74ZM17.191 4.92189C17.704 5.05928 18.1839 5.29903 18.6019 5.62671C19.0198 5.95439 19.3672 6.36324 19.623 6.82865C19.8788 7.29406 20.0378 7.80642 20.0905 8.33489C20.1432 8.86336 20.0884 9.39702 19.9294 9.90377C19.7766 9.79101 19.6176 9.68679 19.4532 9.59158L15.2813 7.18314C15.1958 7.13377 15.0988 7.10778 15.0001 7.10778C14.9013 7.10778 14.8043 7.13377 14.7188 7.18314L10.3126 9.72658V7.56189L14.2032 5.31189C14.6507 5.05261 15.1452 4.88465 15.6581 4.8177C16.1709 4.75076 16.6919 4.78617 17.191 4.92189ZM13.6876 12.9741L12.0001 13.9481L10.3126 12.9741V11.026L12.0001 10.0519L13.6876 11.026V12.9741ZM7.31257 6.75002C7.31247 5.95711 7.55175 5.18264 7.99911 4.52799C8.44646 3.87333 9.08104 3.36898 9.81979 3.08096C10.5585 2.79294 11.367 2.73466 12.1394 2.91376C12.9119 3.09285 13.6122 3.50097 14.1488 4.0847C13.9749 4.16107 13.8053 4.24683 13.6407 4.34158L9.46882 6.75002C9.3834 6.79934 9.31244 6.87025 9.26308 6.95566C9.21371 7.04106 9.18767 7.13794 9.18757 7.23658V12.3244L7.31257 11.2425V6.75002ZM3.66851 8.05595C3.93978 7.5829 4.30691 7.17175 4.74636 6.84886C5.18581 6.52597 5.68788 6.29848 6.22039 6.18095C6.19896 6.36989 6.18801 6.55987 6.18757 6.75002V11.5669C6.18751 11.6657 6.21347 11.7628 6.26284 11.8483C6.31222 11.9339 6.38326 12.005 6.46882 12.0544L10.8751 14.5978L9.00007 15.6806L5.10945 13.4306C4.20621 12.9085 3.54714 12.0492 3.27697 11.0414C3.0068 10.0337 3.14762 8.95994 3.66851 8.05595ZM6.80914 19.0781C6.29613 18.9408 5.81621 18.701 5.39827 18.3733C4.98032 18.0456 4.63299 17.6368 4.37716 17.1714C4.12133 16.706 3.9623 16.1936 3.90964 15.6651C3.85697 15.1367 3.91176 14.603 4.0707 14.0963C4.22358 14.209 4.38257 14.3132 4.54695 14.4085L8.71882 16.8169C8.80433 16.8663 8.90133 16.8923 9.00007 16.8923C9.09881 16.8923 9.19581 16.8663 9.28132 16.8169L13.6876 14.2735V16.4381L9.79695 18.6881C9.34943 18.9474 8.85495 19.1154 8.3421 19.1823C7.82925 19.2493 7.30821 19.2139 6.80914 19.0781ZM16.6876 17.25C16.6877 18.0429 16.4484 18.8174 16.001 19.472C15.5537 20.1267 14.9191 20.631 14.1804 20.9191C13.4416 21.2071 12.6331 21.2654 11.8607 21.0863C11.0883 20.9072 10.3879 20.4991 9.85132 19.9153C10.0252 19.839 10.1948 19.7532 10.3594 19.6585L14.5313 17.25C14.6167 17.2007 14.6877 17.1298 14.7371 17.0444C14.7864 16.959 14.8125 16.8621 14.8126 16.7635V11.6756L16.6876 12.7575V17.25ZM20.3316 15.9441C20.0604 16.4171 19.6932 16.8283 19.2538 17.1512C18.8143 17.4741 18.3123 17.7016 17.7798 17.8191C17.8012 17.6301 17.8121 17.4402 17.8126 17.25V12.4331C17.8126 12.3343 17.7867 12.2373 17.7373 12.1517C17.6879 12.0661 17.6169 11.995 17.5313 11.9456L13.1251 9.4022L15.0001 8.31939L18.8907 10.5694C19.7939 11.0916 20.453 11.9509 20.7232 12.9586C20.9933 13.9663 20.8525 15.0401 20.3316 15.9441Z" fill="#7E57A6"/>
</svg>
