<svg width="24" height="24" viewBox="0 0 24 24" fill="none" xmlns="http://www.w3.org/2000/svg">
<g clip-path="url(#clip0_240_486)">
<path d="M20.7128 8.12902L20.4668 8.69502C20.4284 8.78719 20.3635 8.86592 20.2804 8.92129C20.1973 8.97667 20.0997 9.00622 19.9998 9.00622C19.8999 9.00622 19.8023 8.97667 19.7192 8.92129C19.6361 8.86592 19.5713 8.78719 19.5328 8.69502L19.2868 8.12902C18.8543 7.12774 18.0622 6.32494 17.0668 5.87902L16.3078 5.54002C16.2157 5.49766 16.1377 5.42979 16.083 5.34445C16.0284 5.25911 15.9993 5.15988 15.9993 5.05852C15.9993 4.95716 16.0284 4.85793 16.083 4.77259C16.1377 4.68725 16.2157 4.61938 16.3078 4.57702L17.0248 4.25802C18.0452 3.7994 18.8509 2.9669 19.2758 1.93202L19.5298 1.32102C19.567 1.22637 19.6318 1.14512 19.7158 1.08785C19.7998 1.03057 19.8991 0.999939 20.0008 0.999939C20.1025 0.999939 20.2018 1.03057 20.2858 1.08785C20.3698 1.14512 20.4346 1.22637 20.4718 1.32102L20.7248 1.93102C21.1493 2.9661 21.9546 3.79895 22.9748 4.25802L23.6928 4.57802C23.7846 4.6205 23.8623 4.68836 23.9168 4.77359C23.9713 4.85883 24.0002 4.95787 24.0002 5.05902C24.0002 5.16017 23.9713 5.25921 23.9168 5.34445C23.8623 5.42968 23.7846 5.49754 23.6928 5.54002L22.9328 5.87802C21.9376 6.32439 21.1459 7.12754 20.7138 8.12902M8.99981 3.00102C10.9425 3.00072 12.8189 3.70733 14.2788 4.98896C15.7388 6.27059 16.6825 8.03967 16.9338 9.96602L19.1838 13.505C19.3318 13.738 19.3018 14.085 18.9588 14.233L16.9998 15.071V18.001C16.9998 18.5315 16.7891 19.0402 16.414 19.4152C16.0389 19.7903 15.5302 20.001 14.9998 20.001H13.0008L12.9998 23.001H3.99981V19.307C3.99981 18.127 3.56381 17.01 2.75581 16.002C1.81356 14.8255 1.22285 13.4068 1.05173 11.9093C0.880605 10.4117 1.13603 8.8963 1.78858 7.53758C2.44113 6.17887 3.46425 5.03215 4.74008 4.22953C6.0159 3.42692 7.49252 3.00106 8.99981 3.00102ZM8.99981 5.00102C7.86939 5.00097 6.76195 5.32027 5.80507 5.92212C4.84819 6.52397 4.08079 7.38389 3.59128 8.40283C3.10178 9.42177 2.91007 10.5583 3.03826 11.6814C3.16644 12.8045 3.6093 13.8686 4.31581 14.751C5.40981 16.115 5.99981 17.668 5.99981 19.307V21.001H10.9998L11.0018 18.001H14.9998V13.753L16.5498 13.089L15.0068 10.664L14.9498 10.222C14.7607 8.77784 14.0527 7.45176 12.9579 6.4911C11.8632 5.53045 10.4563 5.00083 8.99981 5.00102ZM19.4898 17.994L21.1538 19.104C22.3609 17.2978 23.0035 15.1734 22.9998 13.001C22.9991 12.3177 22.9388 11.651 22.8188 11.001L20.8758 11.501C20.9578 11.9897 20.9991 12.4897 20.9998 13.001C21.0028 14.7783 20.4772 16.5163 19.4898 17.994Z" fill="#7E57A6"/>
</g>
<defs>
<clipPath id="clip0_240_486">
<rect width="24" height="24" fill="white"/>
</clipPath>
</defs>
</svg>
