<svg width="25" height="25" viewBox="0 0 25 25" fill="none" xmlns="http://www.w3.org/2000/svg">
<path d="M22.9168 12.5C22.9168 18.2529 18.2531 22.9166 12.5002 22.9166M22.9168 12.5C22.9168 6.74701 18.2531 2.08331 12.5002 2.08331M22.9168 12.5H2.0835M12.5002 22.9166C6.7472 22.9166 2.0835 18.2529 2.0835 12.5M12.5002 22.9166C15.1057 20.0642 16.5864 16.3624 16.6668 12.5C16.5864 8.63751 15.1057 4.93576 12.5002 2.08331M12.5002 22.9166C9.89466 20.0642 8.41396 16.3624 8.3335 12.5C8.41396 8.63751 9.89466 4.93576 12.5002 2.08331M2.0835 12.5C2.0835 6.74701 6.7472 2.08331 12.5002 2.08331" stroke="#7E57A6" stroke-width="2" stroke-linecap="round" stroke-linejoin="round"/>
</svg>
