<svg width="24" height="24" viewBox="0 0 24 24" fill="none" xmlns="http://www.w3.org/2000/svg">
<path d="M23.4078 8.28475C24.2424 10.8489 24.189 13.6194 23.2561 16.1494C22.3233 18.6794 20.5653 20.8215 18.2659 22.23C15.9665 23.6385 13.2596 24.2314 10.582 23.9131C7.90429 23.5947 5.41191 22.3837 3.50685 20.4753C1.60178 18.5669 0.39511 16.0723 0.0814607 13.3941C-0.232189 10.7159 0.365472 8.01007 1.77804 5.71313C3.19061 3.41619 5.33573 1.66203 7.8674 0.733606C10.3991 -0.194819 13.1697 -0.243383 15.7323 0.595748L14.1618 2.16625C14.0758 2.25225 13.9968 2.34475 13.9248 2.44375C11.8729 2.0296 9.74227 2.2868 7.8479 3.17732C5.95352 4.06784 4.39604 5.54438 3.40579 7.38858C2.41554 9.23278 2.0451 11.3467 2.34926 13.4177C2.65342 15.4888 3.61603 17.4069 5.09472 18.8885C6.57342 20.3701 8.48968 21.3365 10.5601 21.6447C12.6305 21.953 14.7452 21.5867 16.5913 20.6C18.4375 19.6134 19.9171 18.0588 20.8113 16.1662C21.7055 14.2736 21.9669 12.1434 21.5568 10.0907C21.6594 10.0179 21.7558 9.93666 21.8448 9.84775L23.4078 8.28475ZM19.3503 10.5062C19.4503 10.9922 19.5003 11.4922 19.5003 12.0062C19.4999 13.554 19.0206 15.0637 18.1282 16.3284C17.2358 17.593 15.974 18.5505 14.5159 19.0696C13.0578 19.5888 11.4748 19.6441 9.984 19.228C8.49321 18.8119 7.16767 17.9447 6.18919 16.7455C5.21071 15.5463 4.62722 14.0737 4.51876 12.5297C4.41029 10.9857 4.78215 9.44604 5.58334 8.12177C6.38454 6.79751 7.57582 5.75355 8.99378 5.1331C10.4117 4.51264 11.9869 4.34607 13.5033 4.65625V6.97525C12.3838 6.64105 11.1848 6.68982 10.0961 7.11385C9.00746 7.53789 8.09134 8.31294 7.4928 9.31632C6.89427 10.3197 6.64753 11.494 6.79164 12.6535C6.93576 13.8129 7.46249 14.8911 8.28845 15.7174C9.11441 16.5437 10.1924 17.0709 11.3518 17.2155C12.5111 17.3601 13.6856 17.1139 14.6892 16.5158C15.6928 15.9177 16.4683 15.0019 16.8928 13.9134C17.3173 12.8249 17.3665 11.6259 17.0328 10.5062H19.3503ZM12.0003 14.2562C12.3454 14.2564 12.6859 14.1772 12.9954 14.0248C13.305 13.8724 13.5753 13.6508 13.7856 13.3772C13.9958 13.1036 14.1403 12.7853 14.2079 12.4469C14.2755 12.1085 14.2643 11.7591 14.1753 11.4257L16.5483 9.05125L16.5933 9.00625H20.2533C20.3519 9.00642 20.4495 8.98717 20.5406 8.9496C20.6317 8.91202 20.7145 8.85685 20.7843 8.78725L23.7843 5.78725C23.8895 5.68235 23.9611 5.5486 23.9902 5.40293C24.0192 5.25727 24.0044 5.10626 23.9475 4.96905C23.8906 4.83184 23.7943 4.71461 23.6707 4.63222C23.5471 4.54982 23.4018 4.50598 23.2533 4.50625H19.5033V0.756248C19.5033 0.608025 19.4593 0.463135 19.377 0.339874C19.2947 0.216612 19.1777 0.120506 19.0408 0.063691C18.9039 0.00687616 18.7532 -0.00809984 18.6078 0.0206541C18.4624 0.0494081 18.3288 0.120603 18.2238 0.225248L15.2238 3.22525C15.1539 3.2949 15.0985 3.37766 15.0607 3.46878C15.0228 3.5599 15.0033 3.65759 15.0033 3.75625V7.41625L14.9583 7.46125L12.5853 9.83275C12.2516 9.7429 11.9018 9.73112 11.5628 9.79831C11.2238 9.86551 10.9049 10.0099 10.6307 10.2202C10.3566 10.4305 10.1345 10.7012 9.98186 11.0112C9.82918 11.3212 9.74995 11.6622 9.75031 12.0077C9.75031 12.6045 9.98737 13.1768 10.4093 13.5987C10.8313 14.0207 11.4036 14.2577 12.0003 14.2577" fill="#3F2C53"/>
</svg>
