<svg width="25" height="25" viewBox="0 0 25 25" fill="none" xmlns="http://www.w3.org/2000/svg">
<path d="M18.1688 0.0716334C18.3402 0.142499 18.4868 0.262636 18.5899 0.416837C18.693 0.571038 18.7481 0.752371 18.7481 0.937883V5.62538H23.4356C23.6213 5.62505 23.8029 5.67985 23.9574 5.78285C24.1118 5.88584 24.2323 6.03238 24.3034 6.20389C24.3744 6.3754 24.393 6.56416 24.3567 6.74624C24.3204 6.92832 24.2308 7.09552 24.0994 7.22663L20.3494 10.9766C20.2622 11.0636 20.1586 11.1326 20.0448 11.1796C19.9309 11.2265 19.8088 11.2506 19.6856 11.2504H14.4488L13.0613 12.6398C13.1358 12.9177 13.1453 13.2092 13.0892 13.4914C13.033 13.7737 12.9126 14.0393 12.7372 14.2675C12.5619 14.4958 12.3364 14.6806 12.0782 14.8077C11.82 14.9348 11.5359 15.0007 11.2481 15.0004C10.7509 15.0004 10.2739 14.8028 9.92231 14.4512C9.57068 14.0996 9.37313 13.6227 9.37313 13.1254L9.37501 13.0391C9.38787 12.759 9.46338 12.4854 9.59598 12.2384C9.72858 11.9913 9.9149 11.7772 10.1412 11.6117C10.3675 11.4462 10.6281 11.3335 10.9037 11.282C11.1793 11.2305 11.463 11.2415 11.7338 11.3141L13.1231 9.92476V4.68788C13.1229 4.56469 13.147 4.44265 13.1939 4.32876C13.2409 4.21487 13.3099 4.11136 13.3969 4.02413L17.1469 0.274133C17.2781 0.143104 17.4452 0.053928 17.6271 0.017883C17.809 -0.018162 17.9975 0.000543319 18.1688 0.0716334ZM19.2975 9.37538L21.1725 7.50038H17.8106C17.562 7.50038 17.3235 7.40161 17.1477 7.2258C16.9719 7.04998 16.8731 6.81152 16.8731 6.56288V3.20101L14.9981 5.07601V9.37538H19.2975ZM22.395 11.5804C22.465 12.0866 22.5 12.6023 22.5 13.1273C22.4994 15.4181 21.7995 17.6541 20.4938 19.5364C19.1882 21.4186 17.339 22.8575 15.1935 23.6605C13.0481 24.4635 10.7086 24.5924 8.48797 24.03C6.26729 23.4676 4.27123 22.2406 2.76666 20.5132C1.26209 18.7857 0.320734 16.6402 0.0684441 14.3633C-0.183846 12.0864 0.264957 9.78681 1.35485 7.7719C2.44474 5.75699 4.12377 4.12281 6.16745 3.08787C8.21114 2.05293 10.5221 1.66654 12.7913 1.98038L12.0731 2.69851C11.7759 2.99574 11.5491 3.35582 11.4094 3.75226L11.2481 3.75038C9.38713 3.75066 7.56831 4.3048 6.02329 5.34225C4.47828 6.37969 3.27699 7.8535 2.57241 9.57597C1.86782 11.2984 1.69182 13.1916 2.06682 15.0145C2.44182 16.8373 3.35085 18.5073 4.67815 19.8118C6.00544 21.1162 7.69095 21.9961 9.52001 22.3395C11.3491 22.6828 13.2389 22.474 14.9489 21.7396C16.6589 21.0053 18.1117 19.7786 19.1221 18.2158C20.1326 16.653 20.6551 14.8249 20.6231 12.9641C21.0181 12.8245 21.3768 12.5983 21.6731 12.3023L22.395 11.5804ZM11.2481 6.56288C9.95019 6.56288 8.6814 6.94777 7.6022 7.66886C6.52301 8.38996 5.68187 9.41488 5.18517 10.614C4.68847 11.8132 4.55852 13.1327 4.81173 14.4057C5.06495 15.6787 5.68996 16.848 6.60775 17.7658C7.52553 18.6836 8.69485 19.3086 9.96785 19.5618C11.2409 19.815 12.5604 19.685 13.7595 19.1883C14.9586 18.6916 15.9836 17.8505 16.7047 16.7713C17.4257 15.6921 17.8106 14.4233 17.8106 13.1254H15.9356C15.9356 14.0525 15.6607 14.9588 15.1456 15.7296C14.6306 16.5005 13.8985 17.1013 13.042 17.4561C12.1854 17.8109 11.2429 17.9037 10.3336 17.7228C9.42436 17.5419 8.58913 17.0955 7.93357 16.4399C7.27801 15.7844 6.83157 14.9492 6.6507 14.0399C6.46983 13.1306 6.56266 12.1881 6.91745 11.3316C7.27223 10.475 7.87304 9.74294 8.6439 9.22787C9.41475 8.7128 10.321 8.43788 11.2481 8.43788V6.56288Z" fill="#3F2C53"/>
</svg>
