<svg width="23" height="23" viewBox="0 0 23 23" fill="none" xmlns="http://www.w3.org/2000/svg">
<path fill-rule="evenodd" clip-rule="evenodd" d="M10.3509 0.365983C10.5853 0.131644 10.9032 0 11.2346 0C11.5661 0 11.884 0.131644 12.1184 0.365983L19.6184 7.86598L22.1184 10.366C22.3461 10.6017 22.4721 10.9175 22.4692 11.2452C22.4664 11.573 22.3349 11.8865 22.1032 12.1183C21.8714 12.35 21.5579 12.4815 21.2301 12.4843C20.9024 12.4872 20.5866 12.3612 20.3509 12.1335L19.9846 11.7672V19.9997C19.9846 20.6628 19.7212 21.2987 19.2524 21.7675C18.7836 22.2363 18.1477 22.4997 17.4846 22.4997H13.7346C13.4031 22.4997 13.0852 22.368 12.8508 22.1336C12.6163 21.8992 12.4846 21.5813 12.4846 21.2497V17.4997H9.98464V21.2497C9.98464 21.5813 9.85294 21.8992 9.61852 22.1336C9.3841 22.368 9.06616 22.4997 8.73464 22.4997H4.98464C4.3216 22.4997 3.68571 22.2363 3.21687 21.7675C2.74803 21.2987 2.48464 20.6628 2.48464 19.9997V11.7672L2.11839 12.1335C1.88264 12.3612 1.56688 12.4872 1.23914 12.4843C0.911392 12.4815 0.597877 12.35 0.366117 12.1183C0.134356 11.8865 0.00289528 11.573 4.72533e-05 11.2452C-0.00280077 10.9175 0.123192 10.6017 0.35089 10.366L2.85089 7.86598L10.3509 0.365983Z" fill="white"/>
</svg>
