<svg width="24" height="24" viewBox="0 0 24 24" fill="none" xmlns="http://www.w3.org/2000/svg">
<path d="M2 12L12 2L22 12M4.5 10.125V20.75C4.5 21.0815 4.6317 21.3995 4.86612 21.6339C5.10054 21.8683 5.41848 22 5.75 22H9.5V18.25C9.5 17.9185 9.6317 17.6005 9.86612 17.3661C10.1005 17.1317 10.4185 17 10.75 17H13.25C13.5815 17 13.8995 17.1317 14.1339 17.3661C14.3683 17.6005 14.5 17.9185 14.5 18.25V22H18.25C18.5815 22 18.8995 21.8683 19.1339 21.6339C19.3683 21.3995 19.5 21.0815 19.5 20.75V10.125" stroke="white" stroke-width="2.4" stroke-linecap="round" stroke-linejoin="round"/>
</svg>
