<svg width="26" height="30" viewBox="0 0 26 30" fill="none" xmlns="http://www.w3.org/2000/svg">
<path d="M26 21V1.5C26 0.5625 25.4429 0 24.5143 0H5.57143C2.41429 0 0 2.4375 0 5.625V24.375C0 27.5625 2.41429 30 5.57143 30H24.5143C25.2571 30 26 29.4375 26 28.5V27.5625C26 27.1875 25.8143 26.8125 25.4429 26.4375C25.2571 25.5 25.2571 22.875 25.4429 22.125C25.8143 21.9375 26 21.5625 26 21ZM17.4734 8.54414C17.5082 8.47324 17.5755 8.4375 17.6429 8.4375C17.7102 8.4375 17.7775 8.47324 17.8123 8.54414L18.4612 9.87129L19.9121 10.084C20.067 10.1068 20.1291 10.299 20.0171 10.4098L18.9672 11.4428L19.215 12.9012C19.2359 13.0248 19.139 13.125 19.0287 13.125C18.9997 13.125 18.9696 13.118 18.9405 13.1027L17.6429 12.4143L16.3452 13.1027C16.3162 13.118 16.286 13.125 16.257 13.125C16.1467 13.125 16.0498 13.0248 16.0707 12.9012L16.3185 11.4428L15.2686 10.4098C15.156 10.299 15.2181 10.1068 15.3737 10.084L16.824 9.87129L17.4734 8.54414ZM14.1137 4.50059C14.9071 4.50059 15.6958 4.64648 16.4572 4.93477C16.5147 4.93481 16.5716 4.9476 16.6237 4.97225C16.6758 4.99691 16.722 5.03281 16.7588 5.07743C16.7957 5.12204 16.8224 5.17429 16.8371 5.23048C16.8518 5.28666 16.8541 5.34542 16.8438 5.40259C16.8335 5.45977 16.8109 5.51397 16.7776 5.56137C16.7443 5.60877 16.7012 5.64821 16.6511 5.67691C16.6011 5.70561 16.5454 5.72287 16.488 5.72747C16.4306 5.73206 16.373 5.72389 16.3191 5.70352C16.2802 5.70352 16.1397 5.69121 16.0794 5.69121C13.0435 5.69121 10.5741 8.18438 10.5741 11.2494C10.5741 14.3139 13.0435 16.8076 16.0794 16.8076C16.1392 16.8076 16.2813 16.7953 16.3191 16.7953C16.5471 16.7953 16.7137 16.9793 16.7137 17.1926C16.7137 17.3672 16.6011 17.5154 16.4456 17.5687C15.6871 17.8541 14.9024 17.9988 14.1131 17.9988C10.4273 17.9994 7.42857 14.9713 7.42857 11.25C7.42857 7.52812 10.4273 4.50059 14.1137 4.50059ZM22.1 26.25H5.57143C4.45714 26.25 3.71429 25.5 3.71429 24.375C3.71429 23.25 4.64286 22.5 5.57143 22.5H22.1V26.25Z" fill="white"/>
</svg>
