<svg width="24" height="27" viewBox="0 0 24 27" fill="none" xmlns="http://www.w3.org/2000/svg">
<path d="M22.25 19.75H4.125C3.2962 19.75 2.50134 20.0792 1.91529 20.6653C1.32924 21.2513 1 22.0462 1 22.875C1 23.7038 1.32924 24.4987 1.91529 25.0847C2.50134 25.6708 3.2962 26 4.125 26H22.25" stroke="white" stroke-width="1.9" stroke-linecap="round" stroke-linejoin="round"/>
<path d="M22.2493 25.9995C21.4205 25.9995 20.6257 25.6703 20.0396 25.0842C19.4536 24.4982 19.1243 23.7033 19.1243 22.8745C19.1243 22.0457 19.4536 21.2509 20.0396 20.6648C20.6257 20.0788 21.4205 19.7495 22.2493 19.7495M15.2918 12.2495C14.9754 12.7743 14.5436 13.2201 14.0293 13.5533C13.5149 13.8864 12.9315 14.0981 12.3232 14.1723C11.7149 14.2465 11.0977 14.1812 10.5184 13.9815C9.93902 13.7817 9.41275 13.4527 8.97943 13.0194C8.54611 12.5861 8.21712 12.0598 8.01738 11.4805C7.81763 10.9012 7.75238 10.284 7.82657 9.67567C7.90077 9.06737 8.11245 8.48395 8.44559 7.9696C8.77872 7.45526 9.22456 7.0235 9.74933 6.70703M13.4993 8.49953H13.5106" stroke="white" stroke-width="1.9" stroke-linecap="round" stroke-linejoin="round"/>
<path d="M1 22.875V5.375C1 4.21468 1.46094 3.10188 2.28141 2.28141C3.10188 1.46094 4.21468 1 5.375 1H17.875C19.0353 1 20.1481 1.46094 20.9686 2.28141C21.7891 3.10188 22.25 4.21468 22.25 5.375V19.75" stroke="white" stroke-width="1.9" stroke-linecap="round" stroke-linejoin="round"/>
</svg>
