<svg width="27" height="27" viewBox="0 0 27 27" fill="none" xmlns="http://www.w3.org/2000/svg">
<path d="M10.0864 4.33936L10.9157 2.19864C11.0556 1.83619 11.3016 1.52443 11.6217 1.30419C11.9417 1.08395 12.3208 0.965503 12.7093 0.964355H14.2907C14.6792 0.965503 15.0583 1.08395 15.3783 1.30419C15.6984 1.52443 15.9444 1.83619 16.0843 2.19864L16.9136 4.33936L19.7293 5.95936L22.005 5.61221C22.3839 5.56078 22.7696 5.62316 23.113 5.79142C23.4564 5.95969 23.742 6.22624 23.9336 6.55721L24.705 7.90721C24.9027 8.24346 24.9938 8.63174 24.9662 9.02081C24.9387 9.40988 24.7938 9.78146 24.5507 10.0865L23.1429 11.8801V15.1201L24.5893 16.9136C24.8324 17.2187 24.9772 17.5903 25.0048 17.9793C25.0323 18.3684 24.9413 18.7567 24.7436 19.0929L23.9721 20.4429C23.7806 20.7739 23.495 21.0405 23.1516 21.2087C22.8082 21.377 22.4225 21.4394 22.0436 21.3879L19.7679 21.0408L16.9521 22.6608L16.1229 24.8015C15.983 25.1639 15.7369 25.4757 15.4169 25.6959C15.0969 25.9162 14.7178 26.0346 14.3293 26.0358H12.7093C12.3208 26.0346 11.9417 25.9162 11.6217 25.6959C11.3016 25.4757 11.0556 25.1639 10.9157 24.8015L10.0864 22.6608L7.27072 21.0408L4.995 21.3879C4.61607 21.4394 4.2304 21.377 3.887 21.2087C3.54361 21.0405 3.25798 20.7739 3.06643 20.4429L2.295 19.0929C2.09733 18.7567 2.00625 18.3684 2.0338 17.9793C2.06134 17.5903 2.20621 17.2187 2.44929 16.9136L3.85715 15.1201V11.8801L2.41072 10.0865C2.16764 9.78146 2.02277 9.40988 1.99523 9.02081C1.96768 8.63174 2.05876 8.24346 2.25643 7.90721L3.02786 6.55721C3.21941 6.22624 3.50504 5.95969 3.84843 5.79142C4.19183 5.62316 4.5775 5.56078 4.95643 5.61221L7.23215 5.95936L10.0864 4.33936ZM9.64286 13.5001C9.64286 14.2629 9.86908 15.0087 10.2929 15.643C10.7167 16.2773 11.3191 16.7717 12.0239 17.0636C12.7287 17.3555 13.5043 17.4319 14.2525 17.2831C15.0007 17.1343 15.688 16.7669 16.2274 16.2275C16.7668 15.6881 17.1342 15.0008 17.283 14.2526C17.4319 13.5043 17.3555 12.7288 17.0635 12.024C16.7716 11.3192 16.2772 10.7168 15.6429 10.293C15.0086 9.86914 14.2629 9.64293 13.5 9.64293C12.477 9.64293 11.4959 10.0493 10.7726 10.7727C10.0492 11.496 9.64286 12.4771 9.64286 13.5001V13.5001Z" stroke="white" stroke-linecap="round" stroke-linejoin="round"/>
</svg>
