<svg width="25" height="23" viewBox="0 0 25 23" fill="none" xmlns="http://www.w3.org/2000/svg">
<path fill-rule="evenodd" clip-rule="evenodd" d="M22.5 1.25335e-07C23.1307 -0.000199474 23.7382 0.238008 24.2007 0.666871C24.6632 1.09573 24.9464 1.68356 24.9938 2.3125L25 2.5V20C25.0002 20.6307 24.762 21.2382 24.3331 21.7007C23.9043 22.1632 23.3164 22.4464 22.6875 22.4938L22.5 22.5H2.5C1.86928 22.5002 1.26179 22.262 0.799315 21.8331C0.336838 21.4043 0.0535543 20.8164 0.00625027 20.1875L1.25335e-07 20V2.5C-0.000199474 1.86928 0.238008 1.26179 0.666871 0.799315C1.09573 0.336838 1.68356 0.0535543 2.3125 0.00625027L2.5 1.25335e-07H22.5ZM22.5 2.5H2.5V20H22.5V2.5ZM10.425 5.7975L11.0725 6.085L11.495 6.285L11.9788 6.5225L12.5162 6.795L13.1037 7.1075L13.7375 7.4575L14.07 7.6475L14.7175 8.02875L15.31 8.39375L15.8475 8.735L16.3225 9.05125L16.9225 9.46375L17.3775 9.7925L17.4963 9.88C17.6892 10.0235 17.8458 10.2102 17.9538 10.4251C18.0617 10.6399 18.1179 10.877 18.1179 11.1175C18.1179 11.358 18.0617 11.5951 17.9538 11.8099C17.8458 12.0248 17.6892 12.2115 17.4963 12.355L17.0925 12.6488L16.5425 13.0337L16.0975 13.3325L15.5912 13.6613L15.025 14.015L14.4012 14.39L13.7338 14.7762L13.0975 15.1287L12.5087 15.4412L11.9712 15.7162L11.4887 15.9512L10.7113 16.3112L10.4237 16.4363C10.203 16.5314 9.96314 16.5736 9.72321 16.5595C9.48327 16.5455 9.24994 16.4756 9.04182 16.3554C8.8337 16.2352 8.65655 16.068 8.5245 15.8672C8.39245 15.6664 8.30915 15.4375 8.28125 15.1988L8.20875 14.4925L8.16875 14.025L8.11625 13.195L8.0875 12.56L8.06875 11.8663L8.06375 11.4988L8.06125 11.1175C8.06125 10.8592 8.06375 10.6092 8.06875 10.3675L8.0875 9.67375L8.11625 9.04L8.15 8.46875L8.1875 7.9675L8.28125 7.0375C8.30899 6.79852 8.3922 6.56933 8.52424 6.36822C8.65628 6.16711 8.8335 5.99965 9.04175 5.87919C9.25001 5.75873 9.48353 5.68861 9.7237 5.67443C9.96386 5.66024 10.204 5.70239 10.425 5.7975ZM11.1888 8.92375L10.6438 8.65125L10.6075 9.26L10.58 9.94875L10.5638 10.7113L10.5613 11.1175L10.5638 11.5237L10.58 12.285L10.5925 12.6388L10.625 13.2887L10.6438 13.5825L11.1863 13.31L11.795 12.99L12.4637 12.6225L12.8188 12.42L13.5075 12.0125L14.125 11.63L14.67 11.28L14.915 11.1175L14.4062 10.78L13.8237 10.4125C13.4923 10.2073 13.1577 10.0073 12.82 9.8125L12.4662 9.61125L11.7987 9.24375L11.1888 8.92375Z" fill="white"/>
</svg>
