<svg width="25" height="23" viewBox="0 0 25 23" fill="none" xmlns="http://www.w3.org/2000/svg">
<path fill-rule="evenodd" clip-rule="evenodd" d="M2.5 0C1.83696 0 1.20107 0.263392 0.732233 0.732233C0.263392 1.20107 0 1.83696 0 2.5V20C0 20.663 0.263392 21.2989 0.732233 21.7678C1.20107 22.2366 1.83696 22.5 2.5 22.5H22.5C23.163 22.5 23.7989 22.2366 24.2678 21.7678C24.7366 21.2989 25 20.663 25 20V2.5C25 1.83696 24.7366 1.20107 24.2678 0.732233C23.7989 0.263392 23.163 0 22.5 0H2.5ZM8.28125 7.0375C8.30899 6.79852 8.3922 6.56933 8.52424 6.36822C8.65628 6.16711 8.8335 5.99965 9.04175 5.87919C9.25001 5.75873 9.48353 5.68861 9.7237 5.67443C9.96386 5.66024 10.204 5.70239 10.425 5.7975C11.055 6.0675 12.385 6.675 14.07 7.6475C15.2542 8.32429 16.3978 9.06973 17.495 9.88C17.6879 10.0235 17.8446 10.2102 17.9525 10.4251C18.0605 10.6399 18.1167 10.877 18.1167 11.1175C18.1167 11.358 18.0605 11.5951 17.9525 11.8099C17.8446 12.0248 17.6879 12.2115 17.495 12.355C16.3977 13.1644 15.2541 13.909 14.07 14.585C12.8921 15.273 11.6751 15.8916 10.425 16.4375C10.204 16.5329 9.96382 16.5752 9.72356 16.5612C9.4833 16.5471 9.24966 16.477 9.04133 16.3565C8.833 16.236 8.65576 16.0685 8.52378 15.8672C8.3918 15.6659 8.30874 15.4366 8.28125 15.1975C8.13127 13.8427 8.05782 12.4806 8.06125 11.1175C8.06125 9.17875 8.20125 7.71875 8.28125 7.0375Z" fill="white"/>
</svg>
