<svg width="420" height="590" viewBox="0 0 420 590" fill="none" xmlns="http://www.w3.org/2000/svg">
<path d="M91.2827 571.866C43.6703 554.27 73.1693 482.868 93.8703 449.366C111.474 459.304 146.646 478.994 146.505 478.241C152.739 588.862 93.8703 572.278 91.2827 571.866Z" fill="#A589C1" stroke="black" stroke-width="4.70478" stroke-linecap="round"/>
<path d="M415.972 577.923C424.723 402.576 349.987 371.756 311.525 378.264L153.445 372.442C147.387 381.714 135.273 400.012 135.273 399.024C122.099 522.466 138.86 577.923 135.273 577.923C220.37 598.566 417.03 576.512 415.972 577.923Z" fill="#A589C1" stroke="black" stroke-width="4.70478" stroke-linecap="round"/>
<path d="M337.109 584.099C333.933 555.321 329.487 490.627 337.109 462.069" stroke="black" stroke-width="4.70478" stroke-linecap="round"/>
<path d="M396.389 254.705C392.86 300.483 360.613 307.811 344.93 305.752C310.179 407.199 217.371 392.791 215.666 393.614C106.515 372.913 113.984 311.81 111.514 310.986C118.101 191.132 103.222 174.548 104.927 172.901C102.457 125.089 134.685 67.749 135.508 67.749C238.896 -7.64512 344.93 67.0433 341.343 67.749C400.035 101.506 377.04 221.301 377.569 220.713C395.389 229.358 396.506 255.352 396.389 254.705Z" fill="#F0C19A" stroke="black" stroke-width="4.70478" stroke-linecap="round"/>
<path d="M380.099 197.483C267.937 84.8509 149.76 124.089 104.692 157.787C122.688 0.235394 269.066 41.167 270.301 39.2851C407.386 53.5759 379.51 196.836 380.099 197.483Z" fill="#D8CDE4" stroke="black" stroke-width="4.70478" stroke-linecap="round"/>
<path d="M339.284 257.116C342.954 222.113 365.906 218.224 376.923 220.654C381.863 204.07 381.451 196.601 380.863 196.307C234.662 59.2215 105.927 155.199 106.162 155.199C108.338 158.375 111.514 220.654 113.337 220.654C111.514 180.252 119.336 160.786 119.336 160.198C197.623 106.893 290.08 140.771 326.523 164.373C328.934 220.831 338.049 256.234 339.284 257.116Z" fill="#462E13" stroke="black" stroke-width="4.70478" stroke-linecap="round"/>
<path d="M243.26 429.77C311.959 417.171 318.698 381.449 313.479 365.162C249.508 423.336 167.484 383.819 167.151 383.503C164.156 440.12 243.612 429.793 243.26 429.77Z" fill="#A589C1" stroke="black" stroke-width="4.70478" stroke-linecap="round" stroke-linejoin="round"/>
<path d="M207.749 405.563C210.788 401.562 203.272 396.062 199.135 393.811C209.27 395.053 229.477 397.591 229.227 397.81C227.267 402.634 219.31 406.307 219.604 406.326C207.37 438.009 207.866 405.57 207.749 405.563Z" fill="#4D3310" stroke="black" stroke-width="4.70478" stroke-linecap="round" stroke-linejoin="round"/>
<path d="M201.141 505.176V429.606L229.487 432.193V505.176H201.141Z" stroke="black" stroke-width="4.70478" stroke-linecap="round" stroke-linejoin="round"/>
<path d="M248.658 178.253C261.792 169.431 291.754 161.151 306.527 198.601" stroke="black" stroke-width="9.40956" stroke-linecap="round"/>
<path d="M180.909 172.078C165.5 166.961 133.331 164.115 127.921 193.661" stroke="black" stroke-width="9.40956" stroke-linecap="round"/>
<path d="M182.556 222.334C169.167 209.847 140.107 197.622 130.979 248.622" stroke="black" stroke-width="9.40956" stroke-linecap="round" stroke-linejoin="round"/>
<path d="M243.424 230.274C259.518 210.278 294.671 186.637 306.527 252.033" stroke="black" stroke-width="9.40956" stroke-linecap="round" stroke-linejoin="round"/>
<path d="M203.374 269.735C202.197 274.675 197.234 284.626 186.789 284.908C187.142 285.437 178.379 309.138 210.607 304.433" stroke="black" stroke-width="4.70478" stroke-linecap="round" stroke-linejoin="round"/>
<ellipse cx="273.77" cy="250.563" rx="31.522" ry="36.8737" fill="#FAEEC8"/>
<ellipse cx="271.006" cy="253.092" rx="16.1727" ry="21.5244" fill="#40290D"/>
<ellipse cx="161.032" cy="249.446" rx="26.9937" ry="35.7563" fill="#FAEEC8"/>
<ellipse cx="167.149" cy="252.798" rx="13.5851" ry="23.4651" fill="#40290D"/>
<path d="M190.554 346.625C198.179 341.155 217.524 334.11 233.897 349.683" stroke="black" stroke-width="4.70478" stroke-linecap="round"/>
<path d="M373.57 251.236C365.14 250.687 349.634 256.481 355.045 284.051" stroke="black" stroke-width="4.70478" stroke-linecap="round"/>
<path d="M91.0473 394.732C85.2251 492.767 124.392 494.826 124.392 494.355C140.106 494.355 146.84 480.582 149.211 466.891C177.251 467.456 173.989 440.348 168.853 426.724C172.068 422.588 176.568 412.786 168.853 406.67C159.208 399.025 162.619 387.322 162.619 386.616C186.848 363.092 150.092 348.566 150.092 349.919C118.217 333.275 90.6356 396.319 91.0473 394.732Z" fill="#F0C19A"/>
<path d="M150.092 448.425C150.486 453.467 150.374 460.169 149.211 466.891M149.211 466.891C146.84 480.582 140.106 494.355 124.392 494.355C124.392 494.826 85.2251 492.767 91.0473 394.732C90.6356 396.319 118.217 333.275 150.092 349.919C150.092 348.566 186.848 363.092 162.619 386.616C162.619 387.322 159.208 399.025 168.853 406.67C176.568 412.786 172.068 422.588 168.853 426.724C173.989 440.348 177.251 467.456 149.211 466.891Z" stroke="black" stroke-width="4.70478" stroke-linecap="round"/>
<path d="M163.442 386.321C151.955 379.107 125.557 369.537 111.866 388.968" stroke="black" stroke-width="4.70478" stroke-linecap="round"/>
<path d="M166.501 405.317C159.914 401.906 141.883 397.131 122.452 405.317" stroke="black" stroke-width="4.70478" stroke-linecap="round"/>
<path d="M169.913 428.488C163.228 424.195 145.601 418.185 128.569 428.488" stroke="black" stroke-width="4.70478" stroke-linecap="round"/>
<path d="M31.8184 53.4549C41.0968 53.4549 48.5828 55.1946 54.2764 58.674C59.9699 62.1534 62.8167 67.7942 62.8167 75.5965C62.8167 79.7086 61.9732 83.557 60.2862 87.1418C58.7047 90.6212 56.7541 93.7316 54.4345 96.4729C52.2204 99.1088 49.2154 102.272 45.4197 105.962C40.6751 110.601 37.1957 114.45 34.9815 117.507C32.7673 120.46 31.6603 123.781 31.6603 127.471C31.2385 127.893 30.395 128.262 29.1298 128.578C27.97 128.789 26.8629 128.895 25.8085 128.895C23.2781 128.895 21.3802 128.262 20.115 126.997C18.9552 125.732 18.3753 123.834 18.3753 121.303C18.3753 118.667 19.2188 116.084 20.9057 113.554C22.5927 111.023 25.3341 107.544 29.1298 103.115C33.8744 97.7382 37.512 92.9935 40.0424 88.8815C42.5729 84.7695 43.8382 80.3412 43.8382 75.5965C43.8382 71.8008 42.7838 68.7432 40.6751 66.4236C38.6718 64.104 35.5614 62.9442 31.3439 62.9442C27.6537 62.9442 24.7015 63.8404 22.4873 65.6328C20.2731 67.4252 19.166 70.1666 19.166 73.8568C19.166 75.7547 19.6405 78.3379 20.5894 81.6064C19.0079 82.7662 16.6883 83.3461 13.6306 83.3461C9.62406 83.3461 6.40825 82.3445 3.98321 80.3412C1.66361 78.3379 0.503809 75.3857 0.503809 71.4845C0.503809 64.842 3.6669 60.2028 9.99308 57.5669C16.3193 54.8256 23.5944 53.4549 31.8184 53.4549ZM25.8085 144.236C29.2879 144.236 32.082 145.079 34.1907 146.766C36.2995 148.453 37.3538 150.878 37.3538 154.041C37.3538 157.31 36.194 159.787 33.8744 161.474C31.6603 163.267 28.8135 164.163 25.3341 164.163C21.8547 164.163 19.0606 163.32 16.9519 161.633C14.8432 159.946 13.7888 157.521 13.7888 154.358C13.7888 151.089 14.8959 148.611 17.11 146.924C19.4296 145.132 22.3291 144.236 25.8085 144.236Z" fill="#482E0F"/>
</svg>
