<svg width="460" height="554" viewBox="0 0 460 554" fill="none" xmlns="http://www.w3.org/2000/svg">
<path d="M88.4272 412.761C70.3609 377.334 125.438 353.775 155.235 346.423C193.618 342.346 270.596 334.191 271.443 334.191C324.666 348.07 336.369 361.596 336.369 362.42C347.367 515.796 336.369 542.613 336.369 541.731C328.324 555.045 187.757 551.473 118.479 548.023V416.936C115.989 430.306 106.494 448.188 88.4272 412.761Z" fill="#A589C1" stroke="black" stroke-width="4.70478" stroke-linecap="round" stroke-linejoin="round"/>
<path d="M90.6025 186.049C57.9983 244.859 99.718 268.344 124.653 272.735C152.117 366.066 248.448 361.185 246.978 360.479C333.64 355.257 355.776 296.239 356.011 267.383C355.776 242.173 355.446 191.907 356.011 192.518C381.417 132.179 339.309 42.7298 338.603 43.4355C281.146 -6.0235 206.987 4.1506 208.457 4.1506C127.77 5.56203 97.8949 68.1356 97.8949 67.4299C81.8986 143.765 91.367 186.696 90.6025 186.049Z" fill="#F0C19A" stroke="black" stroke-width="4.70478" stroke-linecap="round" stroke-linejoin="round"/>
<path d="M258.33 203.751C258.428 209.906 262.634 223.934 278.678 230.803C279.031 230.803 290.205 252.445 255.801 255.621" stroke="black" stroke-width="4.70478" stroke-linecap="round" stroke-linejoin="round"/>
<path d="M168.88 214.572C174.839 197.811 193.439 172.37 220.162 204.692" stroke="black" stroke-width="5.88098" stroke-linecap="round" stroke-linejoin="round"/>
<path d="M327.723 208.22C320.94 192.714 301.259 169.982 276.794 203.104" stroke="black" stroke-width="5.88098" stroke-linecap="round" stroke-linejoin="round"/>
<path d="M212.163 138.943C201.773 129.612 175.536 121.288 153.706 162.643" stroke="black" stroke-width="9.40956" stroke-linecap="round" stroke-linejoin="round"/>
<path d="M277.795 139.59C286.656 128.024 309.646 115.348 330.724 157.174" stroke="black" stroke-width="9.40956" stroke-linecap="round" stroke-linejoin="round"/>
<path d="M119.067 242.095C117.244 229.176 110.669 205.198 98.9541 212.631" stroke="black" stroke-width="4.70478" stroke-linecap="round" stroke-linejoin="round"/>
<path d="M336.721 508.562L334.251 411.526H405.352C413.174 414.408 410.468 472.335 411.645 474.276C394.849 550.682 354.697 528.969 336.721 508.562Z" fill="#A589C1" stroke="black" stroke-width="4.70478" stroke-linecap="round" stroke-linejoin="round"/>
<path d="M89.838 533.027C42.8843 529.31 45.8091 458.985 53.1407 424.288C77.9388 422.229 127.488 417.913 127.3 417.113C154.235 535.556 89.838 533.733 89.838 533.027Z" fill="#A589C1" stroke="black" stroke-width="4.70478" stroke-linecap="round" stroke-linejoin="round"/>
<path d="M356.54 329.663C369.184 331.368 361.833 362.949 361.539 363.243C411.292 279.263 418.173 306.962 418.173 306.668C421.115 310.182 402.509 332.888 390.976 346.42C437.62 293.539 438.607 318.669 438.353 318.446C440.434 322.366 431.363 334.021 421.748 344.681C446.873 322.056 449.571 334.185 449.813 334.426C453.603 339.68 443.085 353.32 433.175 364.023C450.244 349.439 453.574 354.01 454.047 354.01C470.631 363.537 413.409 423.758 413.939 423.229C367.949 460.808 335.486 413.702 336.074 413.702C320.372 395.765 340.015 353.716 340.25 354.01C346.954 325.428 356.246 329.663 356.54 329.663Z" fill="#F0C19A"/>
<path d="M378.653 394.059C380.966 388.257 380.782 373.97 361.539 363.243M361.539 363.243C361.833 362.949 369.184 331.368 356.54 329.663C356.246 329.663 346.954 325.428 340.25 354.01C340.015 353.716 320.372 395.765 336.074 413.702C335.486 413.702 367.949 460.808 413.939 423.229C413.409 423.758 470.631 363.537 454.047 354.01C453.459 354.01 448.46 346.953 418.173 378.357C418.467 379.239 456.517 343.718 449.813 334.426C449.518 334.132 445.578 316.195 401.883 364.949C401.883 365.243 442.579 326.252 438.345 318.43C438.639 319.253 438.051 289.848 382.299 356.539C382.005 356.539 422.407 311.726 418.173 306.668C418.173 306.962 411.292 279.263 361.539 363.243Z" stroke="black" stroke-width="4.70478" stroke-linecap="round" stroke-linejoin="round"/>
<path d="M101.718 356.127C101.718 355.48 99.8949 324.076 112.892 322.488C112.892 322.782 127.477 319.9 130.652 356.127C133.417 377.416 133.922 421.583 113.833 427.934C113.48 427.934 75.3713 462.867 17.5613 390.413C16.5027 390.413 -1.4343 365.831 4.03501 356.127C3.74091 356.127 5.24777 347.152 18.0553 355.236C8.3582 344.406 1.13104 331.949 11.5039 325.958C12.0148 326.233 13.6028 322.673 25.0635 331.605C16.5594 321.563 10.7783 311.313 17.5613 307.08C19.9079 303.832 28.2913 303.665 45.2729 319.729C37.0788 308.842 31.5524 297.752 39.4385 294.083C39.4385 295.259 57.2578 279.969 101.718 356.127Z" fill="#F0C19A"/>
<path d="M88.7211 390.413C87.3292 383.846 87.9801 367.795 101.718 356.127M101.718 356.127C101.718 355.48 99.8949 324.076 112.892 322.488C112.892 322.782 127.477 319.9 130.652 356.127C133.417 377.416 133.922 421.583 113.833 427.934C113.48 427.934 75.3713 462.867 17.5613 390.413C16.5027 390.413 -1.4343 365.831 4.03501 356.127C3.62334 356.127 6.74028 338.543 39.4385 374.77C39.0857 374.77 -8.96193 337.779 11.5039 325.958C12.2684 326.37 15.4441 318.195 50.4948 356.127C50.0831 356.127 2.38832 316.548 17.5613 307.08C20.7762 302.63 35.3218 303.963 67.7848 344.895C67.432 344.071 22.5013 301.963 39.4385 294.083C39.4385 295.259 57.2578 279.969 101.718 356.127Z" stroke="black" stroke-width="4.70478" stroke-linecap="round" stroke-linejoin="round"/>
<path d="M379.358 209.397C375.971 182.062 362.892 186.912 356.775 192.753V263.208C377.288 252.716 380.378 222.962 379.358 209.397Z" fill="#F0C19A" stroke="black" stroke-width="4.70478" stroke-linecap="round" stroke-linejoin="round"/>
<path d="M237.392 465.102V389.59L262.092 392.175V465.102H237.392Z" stroke="black" stroke-width="4.70478" stroke-linecap="round" stroke-linejoin="round"/>
<path d="M222.278 263.09C254.082 276.169 289.517 270.069 303.259 265.384C293.614 337.602 240.979 326.781 241.803 327.957C197.954 316.901 187.266 280.106 187.404 263.09C206.105 254.622 221.102 263.031 222.278 263.09Z" fill="#482D10" stroke="black" stroke-width="4.70478" stroke-linecap="round" stroke-linejoin="round"/>
<path d="M281.794 314.549C273.462 305.786 246.225 291.648 203.929 305.198C203.165 305.433 244.449 347.953 281.794 314.549Z" fill="#E87A34" stroke="black" stroke-width="4.70478" stroke-linecap="round" stroke-linejoin="round"/>
<path d="M284.146 270.912C250.319 304.692 216.378 276.989 203.636 258.915C214.633 258.915 231.747 266.795 231.57 266.795C242.45 273.147 284.146 271.029 284.146 270.912Z" fill="#F4E4BD" stroke="black" stroke-width="4.70478" stroke-linecap="round" stroke-linejoin="round"/>
<path d="M362.659 122.737C228.929 45.8673 124.511 118.797 89.0146 164.878C89.0146 101.892 98.7771 68.1356 98.3066 67.1359C138.768 6.73823 213.985 4.1506 214.484 3.6559C286.671 -2.95501 338.427 42.5534 339.427 43.5532C361.889 87.4472 361.962 121.459 362.659 122.737C362.678 122.748 362.696 122.759 362.715 122.77C362.696 122.782 362.677 122.771 362.659 122.737Z" fill="#D8CDE4"/>
<path d="M89.0146 164.878C124.516 118.79 228.958 45.8467 362.715 122.77C361.951 123.24 362.48 88.6014 339.427 43.5531C338.427 42.5534 286.671 -2.95501 214.484 3.6559C213.985 4.1506 138.768 6.73823 98.3066 67.1359C98.7771 68.1356 89.0146 101.892 89.0146 164.878Z" stroke="black" stroke-width="4.70478" stroke-linecap="round" stroke-linejoin="round"/>
<path d="M356.129 193.224C356.11 177.228 353.248 140.448 341.956 121.299C341.956 122.123 310.493 96.1877 245.273 98.1284C245.273 97.7168 164.292 100.069 140.709 128.768C138.77 128.004 141.528 195.477 130.148 215.586C130.143 215.611 130.134 215.625 130.123 215.63C130.132 215.616 130.14 215.601 130.148 215.586C130.551 213.903 118.781 166.793 90.8384 185.402C90.5091 185.402 89.3682 169.68 88.8389 161.819C111.187 136.433 173.125 86.2724 242.097 88.7189C267.425 89.503 326.771 97.1169 361.54 121.299C361.246 121.299 370.302 153.116 356.129 193.224Z" fill="#3F2A0F" stroke="black" stroke-width="4.70478" stroke-linecap="round" stroke-linejoin="round"/>
<path d="M222.87 394.474C154.697 381.161 148.656 345.937 154.157 329.989C216.769 388.063 299.185 350.299 299.522 349.992C301.445 405.716 222.519 394.492 222.87 394.474Z" fill="#A589C1" stroke="black" stroke-width="4.70478" stroke-linecap="round" stroke-linejoin="round"/>
<path d="M258.687 371.08C255.741 367.11 263.313 361.808 267.467 359.653C257.371 360.736 237.242 362.958 237.486 363.177C239.344 367.941 247.183 371.655 246.891 371.67C258.458 402.954 258.57 371.086 258.687 371.08Z" fill="#4D3310" stroke="black" stroke-width="4.70478" stroke-linecap="round" stroke-linejoin="round"/>
</svg>
