<svg width="391" height="549" viewBox="0 0 391 549" fill="none" xmlns="http://www.w3.org/2000/svg">
<path d="M49.7151 368.115C70.9807 335.746 122.835 321.106 146.104 317.833C195.779 323.929 294.728 335.993 293.129 335.475C384.46 343.474 369.17 534.958 370.169 534.958C272.486 559.717 91.47 536.193 91.47 534.958C79.414 541.016 18.3107 483.558 17.0757 482.382C-26.5024 446.155 50.362 366.88 49.7151 368.115Z" fill="#A589C1" stroke="black" stroke-width="4.70478" stroke-linecap="round"/>
<path d="M215.265 456.388L217.735 382.817H251.256L245.493 458.799L215.265 456.388Z" stroke="black" stroke-width="4.70478" stroke-linecap="round"/>
<path d="M359.348 188.627C373.698 190.921 392.823 209.54 354.526 265.668C353.867 266.233 357.466 214.543 359.348 188.627Z" fill="#F0C19A" stroke="black" stroke-width="4.70478" stroke-linecap="round"/>
<path d="M118.757 261.022C101.997 260.179 70.4275 246.519 78.2374 198.625C78.2374 199.86 79.1195 177.218 97.7034 169.926C98.1151 170.69 86.1179 54.9525 131.225 34.8395C130.754 35.7217 256.843 -45.5534 347.469 48.2482C347.116 48.8363 385.224 137.521 361.348 184.687C361.935 185.216 352.298 222.18 355.111 264.209C355.114 264.14 355.114 264.154 355.114 264.256C355.113 264.241 355.112 264.225 355.111 264.209C355.011 266.317 351.793 346.169 248.256 349.472C212.108 349.237 135.601 331.217 118.757 261.022Z" fill="#F0C19A" stroke="black" stroke-width="4.70478" stroke-linecap="round"/>
<path d="M368.17 125.524C239.918 41.8262 133.597 108.097 96.4688 151.695C93.0578 72.7131 117.523 48.2481 117.523 47.66C214.735 -25.6757 295.952 14.1385 295.952 13.0211C370.934 42.6024 368.758 125.524 368.17 125.524Z" fill="#D8CDE4" stroke="black" stroke-width="4.70478" stroke-linecap="round"/>
<path d="M124.58 203.624C126.556 170.925 107.054 167.652 97.0566 170.102V148.872C221.557 24.6656 368.228 123.231 369.111 123.231C375.462 151.648 366.464 176.512 361.171 185.393C359.701 197.566 356.761 221.996 356.761 222.325C358.054 164.221 353.585 124.348 351.879 123.231C249.844 56.7169 151.867 117.056 151.279 117.056C145.634 184.099 124.58 204.447 124.58 203.624Z" fill="#412B11" stroke="black" stroke-width="4.70478" stroke-linecap="round"/>
<path d="M211.413 382.414C144.312 364.461 140.699 328.906 147.279 313.373C205.765 375.6 290.575 343.571 290.932 343.289C289.033 399.013 211.061 382.408 211.413 382.414Z" fill="#A589C1" stroke="black" stroke-width="4.70478" stroke-linecap="round" stroke-linejoin="round"/>
<path d="M248.749 361.529C246.082 357.366 253.999 352.596 258.291 350.731C248.145 351.12 227.911 351.957 228.139 352.192C229.667 357.073 237.233 361.315 236.94 361.309C246.337 393.313 248.632 361.527 248.749 361.529Z" fill="#4D3310" stroke="black" stroke-width="4.70478" stroke-linecap="round" stroke-linejoin="round"/>
<path d="M152.632 542.956C114.876 550.307 119.581 536.252 119.816 535.605C108.336 543.791 95.2334 539.016 90.1169 535.605C66.1814 503.495 111.524 472.502 110.7 470.797C153.926 442.274 174.45 477.501 174.862 478.383C179.111 490.111 170.752 492.378 160.209 491.071C169.026 496.102 170.275 502.531 170.275 502.26C173.574 515.671 159.3 514.891 147.727 512.342C177.141 523.675 152.265 542.956 152.632 542.956Z" fill="#F0C19A"/>
<path d="M139.458 530.489C135.832 528.43 126.826 526.572 119.816 535.605M119.816 535.605C119.581 536.252 114.876 550.307 152.632 542.956C152.22 542.956 183.683 518.609 134.165 508.552C132.93 507.729 175.744 524.49 170.275 502.26C170.275 502.672 167.393 487.616 139.458 485.499C154.2 491.243 181.919 497.861 174.862 478.383C174.45 477.501 153.926 442.274 110.7 470.797C111.524 472.502 66.1814 503.495 90.1169 535.605C95.2334 539.016 108.336 543.791 119.816 535.605Z" stroke="black" stroke-width="4.70478" stroke-linecap="round"/>
<path d="M113.524 470.679C102.233 456.78 74.5803 429.148 54.3027 429.806" stroke="black" stroke-width="4.70478" stroke-linecap="round"/>
<path d="M85.7646 444.509C92.9983 433.884 111.382 411.246 127.049 405.694" stroke="black" stroke-width="4.70478" stroke-linecap="round"/>
<path d="M320.299 544.603C323.553 501.985 329.085 413.481 325.18 400.401" stroke="black" stroke-width="4.70478" stroke-linecap="round"/>
<mask id="mask0_1221_376" style="mask-type:alpha" maskUnits="userSpaceOnUse" x="149" y="170" width="114" height="71">
<rect x="153.688" y="170.866" width="109.386" height="61.8679" transform="rotate(4.304 153.688 170.866)" fill="#D9D9D9"/>
</mask>
<g mask="url(#mask0_1221_376)">
<ellipse cx="202.208" cy="182.158" rx="29.993" ry="42.8135" fill="#F9E4C7"/>
<ellipse cx="209.912" cy="186.922" rx="14.9965" ry="23.7003" fill="#442F10"/>
</g>
<mask id="mask1_1221_376" style="mask-type:alpha" maskUnits="userSpaceOnUse" x="256" y="166" width="135" height="72">
<rect x="256.313" y="181.108" width="128.441" height="56.3398" transform="rotate(-6.62943 256.313 181.108)" fill="#D9D9D9"/>
</mask>
<g mask="url(#mask1_1221_376)">
<ellipse cx="311.301" cy="184.393" rx="26.288" ry="42.8135" fill="#F9E4C7"/>
<ellipse cx="306.125" cy="195.214" rx="11.8208" ry="20.3482" fill="#442F10"/>
</g>
<path d="M169.98 172.396C185.095 170.494 218.863 169.42 233.025 180.335" stroke="black" stroke-width="4.70478" stroke-linecap="round"/>
<path d="M336.707 171.631C322.886 171.435 293.14 173.16 284.719 181.629" stroke="black" stroke-width="4.70478" stroke-linecap="round"/>
<path d="M265.783 209.328C265.195 214.112 267.476 224.148 281.308 226.03C282.191 226.324 295.364 255.965 261.96 252.142" stroke="black" stroke-width="4.70478" stroke-linecap="round"/>
<path d="M195.504 276.783C220.44 243.097 267.409 268.001 287.777 284.664C294.481 334.887 221.851 320.302 221.557 320.008C176.097 313.539 194.916 276.548 195.504 276.783Z" fill="#412B11" stroke="black" stroke-width="4.70478" stroke-linecap="round"/>
<path d="M193.505 303.777C211.265 294.406 250.609 284.311 265.9 318.891C265.9 318.362 209.207 331.006 193.505 303.777Z" fill="#E57732" stroke="black" stroke-width="4.70478" stroke-linecap="round"/>
<path d="M208.677 265.021C219.459 275.156 247.773 291.674 274.779 276.665C275.191 276.254 240.081 250.907 208.677 265.021Z" fill="#FAECC6" stroke="black" stroke-width="4.70478" stroke-linecap="round"/>
<path d="M95.8213 198.448C102.682 200.781 115.946 210.869 114.111 232.558" stroke="black" stroke-width="4.70478" stroke-linecap="round"/>
<path d="M250.491 156.929C252.648 168.887 240.141 181.452 172.862 136.051" stroke="black" stroke-width="4.70478" stroke-linecap="round"/>
<path d="M277.544 156.693C279.661 167.24 294.634 177.947 337.589 136.404" stroke="black" stroke-width="4.70478" stroke-linecap="round"/>
<path d="M76.6254 96.0887C75.4799 94.3675 73.1831 92.4506 71.0676 89.7681C69.0727 87.2385 69.7177 82.8719 69.2399 78.8366C68.5616 73.108 69.7177 70.012 70.8632 65.404C71.777 61.7282 75.8425 58.6834 78.7265 56.2829C81.6519 53.848 82.3819 50.0487 82.9546 46.8856C83.7441 42.5256 84.6844 39.8828 85.2572 36.8089C85.5463 35.2573 85.6458 33.735 84.978 32.2038C83.4841 28.778 79.7109 27.9785 77.2097 26.0588C74.886 24.2752 71.6519 22.2221 68.5779 20.3023C61.5895 15.9378 46.5193 20.2879 42.1041 21.8249C38.021 23.2463 35.7663 24.8931 30.9769 27.0028C27.4521 28.5555 25.9803 31.6051 24.7254 33.9105C23.0988 36.8989 20.6038 41.3795 19.0668 45.3227C17.7868 48.6066 16.3786 51.177 14.5595 54.0552C12.7363 56.9401 10.8179 59.236 7.75257 64.5002C4.43206 70.2028 5.24564 78.002 7.72666 83.2202C9.6531 87.2719 15.3885 87.8224 24.783 88.3204C26.7466 88.4245 27.4885 87.4655 28.0699 86.887C30.3224 84.6457 29.8026 80.1779 29.7134 77.104C29.6049 73.3676 26.3602 70.7719 24.5354 65.9825C23.0884 62.1847 23.6662 54.3085 24.239 49.568C24.5494 46.9994 27.4885 44.1081 29.9897 42.0789C30.9565 41.2946 32.865 41.4025 34.7819 41.6875C37.8041 42.1367 38.4372 46.5718 39.7785 49.3522C42.0092 53.9764 42.4667 57.3133 44.0958 61.3428C44.7524 62.9668 45.3392 64.8025 47.0633 66.3365C48.2221 67.3677 50.5142 67.3065 53.1018 67.0216C56.7401 66.6209 60.4844 63.2885 63.9469 62.2236C66.6803 61.3829 69.3263 62.6956 70.8575 63.844C73.4707 65.8039 73.9314 68.4463 74.4178 71.7073C74.6205 73.0663 74.8985 74.3984 74.7085 75.8347C74.5288 77.1932 73.3673 78.238 72.5067 79.2914C70.9002 81.2579 67.2424 80.9262 63.5957 81.5997C59.6632 82.326 56.4837 81.3177 55.3353 80.5521C52.7171 78.8066 50.5373 74.8129 48.9053 70.9676C46.8268 66.07 46.692 57.5896 50.0336 50.8201C52.3545 46.1182 60.4614 41.2529 64.0505 37.3817C66.3157 34.9384 68.9348 31.8238 71.341 28.5599C72.689 26.7315 72.7859 24.5247 73.0737 22.9935C73.2173 22.2293 73.1716 21.4623 71.9368 20.311C68.5967 17.1966 65.1183 15.8843 63.495 15.5965C58.1096 14.6416 53.427 17.214 50.1573 19.3295C47.4859 21.0579 43.4569 22.5905 40.3685 25.273C37.4321 27.8236 36.7218 31.6051 35.7576 34.1005C34.5306 37.2762 33.6479 39.6641 32.3066 42.4473C30.998 45.163 27.7188 48.8629 24.9211 51.2777C22.356 53.4919 18.3127 56.3578 15.1381 58.5682C14.4557 59.0433 13.8918 59.4317 13.0283 59.6274C12.1649 59.8231 11.0251 59.8231 10.058 59.2533C6.19187 56.975 4.68151 53.6983 3.13878 49.9566C1.54812 46.0987 1.79178 42.3811 2.84233 39.6843C3.9169 36.9257 7.14526 33.1708 14.715 27.6073C19.7773 23.8865 27.8569 21.4623 33.2421 19.5339C36.8543 18.2403 39.1971 17.617 44.5592 17.4155C48.7608 17.2576 53.5652 21.232 57.3299 23.169C59.3023 24.1839 62.2171 24.7089 65.0924 24.5189C68.2896 24.3077 69.3263 20.1153 70.1955 17.332C71.0632 14.5536 66.2754 11.1007 63.8749 9.17227C61.0557 6.90746 53.2658 7.43958 48.7182 8.20231C44.6392 8.88645 42.8697 12.2289 41.5141 14.3387C39.7996 17.0069 37.4932 21.4277 36.6211 24.9794C34.8498 32.1933 32.888 36.0145 30.3897 42.5279C28.9246 46.3478 29.4227 48.6844 29.7076 50.3135C30.2225 53.2572 34.5919 53.871 38.4257 57.2184C41.7576 60.1275 45.5177 64.4053 47.8375 67.3928C49.8479 69.9819 51.1014 72.8557 52.2527 78.0307C52.7956 80.4713 52.0685 82.2675 51.3029 83.4159C49.7881 85.6881 46.8992 87.0626 43.9202 87.2641C40.1404 87.5197 36.1462 84.3916 34.9949 82.6704C34.4178 81.8077 34.6035 80.5693 34.9834 79.4123C36.685 74.2301 42.6509 72.8787 45.5292 71.4367C48.6528 69.8718 53.3809 68.2736 58.9532 64.8255C60.8613 63.6447 62.4185 62.7071 63.9498 61.3687C68.9763 56.9752 68.5664 39.7677 66.2754 33.64C65.4946 31.5517 63.3914 30.851 61.2932 30.5632C57.3312 30.0197 54.1811 30.6553 53.0327 31.1331C50.5675 32.1587 48.6261 35.4389 46.6027 38.5099C44.9274 41.0527 44.965 44.8391 45.155 47.8095C45.4025 51.6799 48.6031 54.4351 51.2856 57.604C54.1488 60.9864 56.4664 63.6454 59.7274 65.7638C62.8229 67.7746 64.7096 72.8442 67.3115 76.9831C69.1214 79.862 70.0976 83.4015 70.9611 86.3891C71.4001 87.9082 72.0203 89.7451 71.7353 91.2821C71.3437 93.3946 67.8066 88.6168 65.1241 86.7892C61.7365 84.4811 58.2163 83.0446 52.9492 83.2288C48.642 83.3794 47.2791 88.2139 44.2109 89.0831C40.3275 90.1833 38.0631 88.4154 37.1046 87.8426C35.0403 86.609 35.1791 78.497 35.9418 73.1694C36.1641 71.6166 37.4817 70.5762 37.2917 69.1399C36.8412 65.7341 33.268 62.3329 32.6866 59.8318C31.6259 55.2687 31.3453 48.7017 30.3897 47.3605C29.4349 46.0203 27.7015 45.6278 26.3631 45.0521C22.0829 43.2112 18.1055 51.177 16.8592 53.5774C14.3307 58.4476 17.3226 67.0993 19.4381 70.0782C21.4736 72.9445 22.5149 82.02 20.7966 86.392C20.5215 87.092 19.6482 87.4425 18.7848 87.7361C17.9213 88.0297 16.7815 88.0297 16.0044 87.6497C13.1732 86.2656 12.9247 82.4805 12.1562 77.9732C11.1068 71.8182 13.8573 60.2491 19.4237 52.2707C23.8243 45.9633 30.9424 43.7166 39.9397 38.9273C45.8037 35.8058 51.4583 32.2153 54.6474 29.3227C55.7116 28.3574 56.6621 27.2072 57.9084 26.1566C60.7025 23.8013 58.4006 18.7798 56.8693 15.6051C56.0758 13.9598 53.9911 13.3917 51.89 12.8161C48.7586 11.9582 44.9823 13.5702 42.107 15.2942C37.8898 17.8228 37.4817 28.3009 38.5322 33.237C39.0958 35.885 43.595 42.4963 46.4934 48.2959C48.3131 51.9372 49.7544 57.1061 50.4308 61.055C51.8579 69.3871 51.4928 77.4609 49.0061 80.8226C47.8988 82.3194 44.9823 82.2732 42.2019 81.9883C38.5556 81.6146 37.2975 73.6731 37.001 70.0984C36.6996 66.4638 43.7907 63.8642 53.0845 60.7931C58.377 59.0442 62.9827 57.1406 66.8251 55.3216C71.1303 53.2835 75.6468 48.529 79.6821 43.8174C81.1918 42.0546 81.2306 38.5474 80.8507 34.8086C80.3304 29.6886 73.9544 26.8273 70.8805 24.4297C68.2633 22.3884 64.7441 22.0264 50.2034 22.0206C43.7859 22.0181 39.7958 26.0444 35.4842 27.7713C31.3719 29.4184 29.0543 34.4718 27.1258 38.1271C24.6917 42.7411 24.8175 47.7231 23.8619 53.4623C23.5135 55.5551 23.6662 58.2344 24.3311 60.0793C26.4066 65.8387 32.8535 66.3394 39.3755 67.8764C44.0135 68.9694 49.7199 71.313 55.4015 74.1077C62.7078 77.7017 65.101 80.1549 67.3115 82.8374C69.1363 86.2912 70.6733 89.7451 71.5367 92.0505C71.8246 92.6291 72.2045 93.1989 72.5959 94.3617" stroke="#412B11" stroke-width="3.52859" stroke-linecap="round"/>
</svg>
