<svg width="428" height="553" viewBox="0 0 428 553" fill="none" xmlns="http://www.w3.org/2000/svg">
<path d="M424.099 540.785C432.614 377.577 367.426 333.951 333.767 332.54C252.374 386.527 174.216 338.186 174.216 338.539C131.579 352.418 118.288 385.116 117.582 384.763C116.453 377.8 109.427 366.493 106.055 361.71C83.0999 366.218 37.0126 375.236 36.3069 375.236C35.6012 530.588 107.918 505.48 144.164 473.507C144.36 495.933 144.634 540.785 144.164 540.785C208.62 562.133 427.568 540.668 424.099 540.785Z" fill="#A589C1" stroke="black" stroke-width="4.70478" stroke-linejoin="round"/>
<path d="M98.2804 300.269C97.9574 296.497 98.4877 278.512 117.111 274.965C121.64 276.847 129.638 285.88 125.403 306.958C125.756 306.605 119.816 372.295 74.7682 382.293C74.7682 382.999 18.0756 388.586 6.07844 319.602C6.37249 319.308 -2.21373 287.668 8.07798 274.965C8.28222 274.965 11.5508 271.106 18.1202 283.274C14.2108 270.634 12.2633 257.687 19.3694 254.617C19.3694 254.852 25.323 248.494 36.9585 270.407C32.0149 256.514 28.5962 240.784 36.7183 238.268C37.2325 238.525 43.3969 229.76 54.3018 250.115C51.3262 236.631 52.464 225.292 66.0644 228.27C66.4161 228.27 85.2871 231.25 98.2804 300.269Z" fill="#F0C19A"/>
<path d="M74.7682 338.303C72.7491 328.521 74.6506 307.358 98.4097 300.959M98.4097 300.959C98.1157 301.312 96.1162 278.964 117.111 274.965C121.64 276.847 129.638 285.88 125.403 306.958C125.756 306.605 119.816 372.295 74.7682 382.293C74.7682 382.999 18.0756 388.586 6.07844 319.602C6.37249 319.308 -2.21373 287.668 8.07798 274.965C8.37202 274.965 15.0175 266.967 28.7202 310.31C28.7202 309.604 4.667 260.968 19.3694 254.617C19.3694 254.911 28.6614 244.913 46.716 292.608C46.0691 292.608 21.7218 242.914 36.7183 238.268C37.424 238.621 48.7743 221.978 68.4168 286.962C67.417 286.257 35.7186 221.625 66.0644 228.27C66.4173 228.27 85.4127 231.269 98.4097 300.959Z" stroke="black" stroke-width="4.70478" stroke-linejoin="round"/>
<path d="M265.312 384.057C333.061 367.073 337.492 330.991 331.238 315.073C271.135 377.235 186.743 343.067 186.39 342.773C187.037 399.465 265.665 384.057 265.312 384.057Z" fill="#A589C1" stroke="black" stroke-width="4.70478" stroke-linejoin="round"/>
<path d="M390.76 183.756C430.139 225.581 386.585 257.288 359.885 267.913C323.482 363.537 230.68 351.246 231.21 352.246C133.821 347.188 127.234 270.441 126.705 270.441C130.704 209.867 121.647 186.696 122.705 187.167C110.12 132.121 116.119 121.594 116.648 121.594C119.177 73.1935 141.995 47.9052 142.113 47.0819C278.787 -57.4819 374.235 55.8445 373.176 56.3738C394.936 70.3706 390.643 183.991 390.76 183.756Z" fill="#F0C19A" stroke="black" stroke-width="4.70478" stroke-linejoin="round"/>
<path d="M390.988 162.403C299.716 48.5943 169.864 86.6756 116.347 119.942C122.933 68.7779 141.635 52.4287 142.223 48.312C279.132 -56.193 371.287 53.0168 370.699 52.4287C399.045 75.4233 390.635 162.285 390.988 162.403Z" fill="#D8CDE4" stroke="black" stroke-width="4.70478" stroke-linejoin="round"/>
<path d="M120.582 177.517C107.879 183.673 91.5413 207.24 127.815 252.264C127.364 227.349 125.286 177.517 120.582 177.517Z" fill="#F0C19A" stroke="black" stroke-width="4.70478" stroke-linejoin="round"/>
<path d="M390.989 183.575C379.516 179.169 356.069 178.378 353.947 210.387C353.953 210.45 353.951 210.491 353.939 210.509C353.942 210.468 353.945 210.428 353.947 210.387C353.642 207.274 332.039 150.891 336.708 122.589C336.296 122.589 237.908 56.0749 132.344 119.825C132.05 122.589 126.522 131.881 126.522 147.289C126.522 147.524 124.444 170.401 123.405 181.81C119.014 166.245 111.549 131.399 116.818 116.531C117.112 117.061 271.017 24.5529 390.989 159.58V183.575Z" fill="#3C250D" stroke="black" stroke-width="4.70478" stroke-linejoin="round"/>
<path d="M228.32 362.18C231.096 357.993 223.243 352.986 218.97 351.006C229.163 351.594 249.492 352.829 249.257 353.065C247.61 358.005 239.906 362.18 240.2 362.18C230.026 394.584 228.438 362.18 228.32 362.18Z" fill="#4D3310" stroke="black" stroke-width="4.70478" stroke-linejoin="round"/>
<path d="M142.459 475.33C142.492 476.629 143.571 477.656 144.87 477.623C146.169 477.59 147.195 476.511 147.163 475.212L142.459 475.33ZM144.811 475.271L147.163 475.212C146.938 466.264 146.938 451.68 147.668 437.059C148.4 422.369 149.86 407.891 152.478 399.013L150.221 398.348L147.965 397.683C145.172 407.154 143.701 422.14 142.969 436.825C142.233 451.58 142.233 466.283 142.459 475.33L144.811 475.271Z" fill="black"/>
<path d="M340.966 407.79C340.204 406.738 338.734 406.501 337.681 407.263C336.628 408.024 336.392 409.495 337.154 410.548L340.966 407.79ZM348.528 548.783L350.88 548.808C351.096 527.989 350.881 496.014 349.534 467.736C348.86 453.602 347.902 440.349 346.565 429.861C345.898 424.62 345.13 420.023 344.243 416.331C343.379 412.731 342.335 409.683 340.966 407.79L339.06 409.169L337.154 410.548C337.937 411.63 338.816 413.878 339.669 417.429C340.499 420.888 341.241 425.298 341.898 430.456C343.212 440.764 344.163 453.875 344.834 467.96C346.176 496.119 346.391 527.999 346.176 548.759L348.528 548.783Z" fill="black"/>
<path d="M110.546 361.611C110.004 360.43 108.608 359.912 107.427 360.453C106.246 360.995 105.727 362.391 106.269 363.572L110.546 361.611ZM125.933 442.22L128.285 442.262C128.524 428.709 125.311 393.809 110.546 361.611L108.407 362.592L106.269 363.572C120.673 394.982 123.811 429.149 123.581 442.178L125.933 442.22Z" fill="black"/>
<path d="M221.028 459.745V384.175L249.375 386.762V459.745H221.028Z" stroke="black" stroke-width="4.70478" stroke-linejoin="round"/>
<path d="M254.255 275.2C239.435 283.528 202.601 284.081 186.036 283.316C192.505 338.362 245.846 326.6 245.375 326.6C291.364 310.31 286.895 270.26 286.66 270.26C267.135 268.79 254.491 275.671 254.255 275.2Z" fill="#493011" stroke="black" stroke-width="4.70478" stroke-linejoin="round"/>
<path d="M276.956 304.664C275.368 304.311 224.615 295.019 211.383 322.307C211.383 322.66 245.61 339.95 276.956 304.664Z" fill="#E17532" stroke="black" stroke-width="4.70478" stroke-linejoin="round"/>
<path d="M383.638 205.981C377.384 208.236 365.289 217.908 366.936 238.562" stroke="black" stroke-width="4.70478" stroke-linecap="round" stroke-linejoin="round"/>
<path d="M193.27 175.4C179.881 162.913 150.821 150.688 141.693 201.688" stroke="black" stroke-width="9.40956" stroke-linecap="round" stroke-linejoin="round"/>
<path d="M254.138 183.339C270.232 163.344 305.385 139.702 317.241 205.099" stroke="black" stroke-width="9.40956" stroke-linecap="round" stroke-linejoin="round"/>
<path d="M140.459 150.406C145.497 138.605 163.077 119.319 193.094 136.586" stroke="black" stroke-width="9.40956" stroke-linecap="round" stroke-linejoin="round"/>
<path d="M256.079 137.056C266.312 127.392 293.165 117.308 318.712 154.287" stroke="black" stroke-width="9.40956" stroke-linecap="round" stroke-linejoin="round"/>
<path d="M214.088 222.801C212.912 227.741 207.949 237.691 197.504 237.974C197.857 238.503 189.094 262.203 221.322 257.499" stroke="black" stroke-width="4.70478" stroke-linecap="round" stroke-linejoin="round"/>
<ellipse cx="284.483" cy="203.629" rx="31.522" ry="36.8737" fill="#FAEEC8"/>
<ellipse cx="281.719" cy="206.158" rx="16.1727" ry="21.5244" fill="#40290D"/>
<ellipse cx="171.746" cy="202.511" rx="26.9937" ry="35.7563" fill="#FAEEC8"/>
<ellipse cx="177.862" cy="205.864" rx="13.5851" ry="23.4651" fill="#40290D"/>
</svg>
