<svg width="452" height="551" viewBox="0 0 452 551" fill="none" xmlns="http://www.w3.org/2000/svg">
<path d="M87.6665 396.526C104.18 356.535 135.479 341.833 149.064 339.481C207.501 327.425 317.601 306.629 315.907 304.842C379.069 496.914 360.367 538.904 362.014 538.904C322.917 553.254 192.152 547.04 131.656 542.139V464.981C101.252 505.148 71.3762 502.501 71.3762 501.972C13.9771 489.133 20.6268 409.892 19.2658 407.46C19.2479 407.442 19.2299 407.424 19.2119 407.406C19.2312 407.412 19.2491 407.43 19.2658 407.46C59.992 448.644 88.1955 395.997 87.6665 396.526Z" fill="#A589C1" stroke="black" stroke-width="4.70478" stroke-linecap="round" stroke-linejoin="round"/>
<path d="M418.176 505.854C373.434 522.414 345.35 478.605 336.901 454.63C354.936 420.462 391.03 352.478 391.124 353.889C488.101 472.391 418.176 506.736 418.176 505.854Z" fill="#A589C1" stroke="black" stroke-width="4.70478" stroke-linecap="round" stroke-linejoin="round"/>
<path d="M303.91 400.113C287.773 421.143 304.988 432.713 315.613 435.869C331.433 458.394 369.93 483.905 397.359 405.759C396.888 405.759 405.827 348.89 368.248 329.659C352.899 324.033 320.883 320.673 315.613 352.242C312.634 354.262 307.145 361.642 309.027 375.003C306.756 375.861 304.975 377.155 303.91 379C301.734 381.96 298.688 390.327 303.91 400.113Z" fill="#F0C19A"/>
<path d="M303.91 400.113C287.773 421.143 304.988 432.713 315.613 435.869C331.433 458.394 369.93 483.905 397.359 405.759C396.888 405.759 405.827 348.89 368.248 329.659C352.899 324.033 320.883 320.673 315.613 352.242M303.91 400.113C303.91 401.054 311.908 395.408 335.844 405.759M303.91 400.113C298.688 390.327 301.734 381.96 303.91 379C304.975 377.155 306.756 375.861 309.027 375.003M347.547 379C337.653 375.692 318.8 371.309 309.027 375.003M356.486 356.947C348.174 352.889 328.363 346.267 315.613 352.242M315.613 352.242C312.634 354.262 307.145 361.642 309.027 375.003" stroke="black" stroke-width="4.70478" stroke-linecap="round" stroke-linejoin="round"/>
<path d="M91.3708 361.887C131.926 333.753 104.74 316.408 86.0779 311.252L64.6123 342.892C73.2965 348.988 90.8062 361.323 91.3708 361.887Z" fill="#F0C19A" stroke="black" stroke-width="4.70478" stroke-linecap="round" stroke-linejoin="round"/>
<path d="M74.6104 389.645C70.0232 414.541 50.8277 448.608 10.743 385.705C9.27271 384.234 -17.3093 315.898 33.3259 287.434C32.8554 287.963 76.0806 268.32 84.4315 309.076C87.7053 317.407 92.2885 334.47 84.4315 336.069C96.2405 336.517 92.959 352.341 89.842 360.197C98.4793 363.749 96.478 376.508 92.7825 385.705C88.8305 408.099 79.0211 397.663 74.6104 389.645Z" fill="#F0C19A"/>
<path d="M84.4315 309.076C76.0806 268.32 32.8554 287.963 33.3259 287.434C-17.3093 315.898 9.27271 384.234 10.743 385.705C50.8277 448.608 70.0232 414.541 74.6104 389.645C79.0211 397.663 88.8305 408.099 92.7825 385.705C96.478 376.508 98.4793 363.749 89.842 360.197M84.4315 309.076C69.3566 307.135 38.6187 306.288 36.2663 318.426C39.5401 313.349 53.7564 304.371 84.4315 309.076ZM84.4315 309.076C87.7053 317.407 92.2885 334.47 84.4315 336.069M57.9083 368.003C74.4555 359.418 84.3217 357.927 89.842 360.197M84.4315 336.069C84.4315 337.069 61.3193 331.129 50.0278 342.95M84.4315 336.069C96.2405 336.517 92.959 352.341 89.842 360.197" stroke="black" stroke-width="4.70478" stroke-linecap="round" stroke-linejoin="round"/>
<path d="M368.895 186.81C406.674 246.326 362.21 266.811 335.255 269.614C298.716 366.651 214.284 353.712 214.931 354.359C132.644 356.43 107.328 291.394 104.956 258.617C109.614 228.083 106.897 195.005 104.956 182.282C89.4306 115.004 123.717 43.8438 125.657 43.1968C222.694 -38.9604 325.552 28.9649 325.552 28.318C400.593 66.4855 368.895 186.163 368.895 186.81Z" fill="#F0C19A" stroke="black" stroke-width="4.70478" stroke-linecap="round" stroke-linejoin="round"/>
<path d="M371.777 168.638C269.071 46.7371 150.279 82.5602 103.722 115.709C110.191 59.6047 126.422 42.9616 125.952 42.4911C198.405 -12.9665 270.33 9.43999 269.8 8.49904C409.297 41.5501 371.365 169.167 371.777 168.638Z" fill="#D8CDE4" stroke="black" stroke-width="4.70478" stroke-linecap="round" stroke-linejoin="round"/>
<path d="M329.845 217.803C333.609 179.883 357.525 182.164 369.013 188.045C369.013 181.282 369.612 167.768 372.012 167.815C247.394 18.144 102.781 114.239 103.604 114.063C99.6049 154.524 105.27 183.262 108.603 192.574C100.369 153.112 114.484 120.12 116.836 120.708C149.24 90.6564 208.168 94.2438 207.521 93.0676C264.037 90.1271 317.083 129 317.083 128.412C317.083 148.466 329.375 217.568 329.845 217.803Z" fill="#4D3213" stroke="black" stroke-width="4.70478" stroke-linecap="round" stroke-linejoin="round"/>
<path d="M243.219 388.234C310.967 371.25 315.398 335.168 309.144 319.25C249.041 381.412 164.649 347.243 164.296 346.949C164.943 403.642 243.571 388.234 243.219 388.234Z" fill="#A589C1" stroke="black" stroke-width="4.70478" stroke-linecap="round" stroke-linejoin="round"/>
<path d="M206.228 366.357C209.004 362.169 201.15 357.163 196.877 355.183C207.071 355.771 227.399 357.006 227.164 357.241C225.517 362.181 217.813 366.357 218.107 366.357C207.933 398.761 206.345 366.357 206.228 366.357Z" fill="#4D3310" stroke="black" stroke-width="4.70478" stroke-linecap="round" stroke-linejoin="round"/>
<path d="M87.3135 397.467C96.8015 410.483 113.449 439.822 104.133 453.042" stroke="black" stroke-width="4.70478" stroke-linecap="round" stroke-linejoin="round"/>
<path d="M131.774 466.215C130.927 465.369 132.44 416.266 133.303 391.821" stroke="black" stroke-width="4.70478" stroke-linecap="round" stroke-linejoin="round"/>
<path d="M398.24 402.995C407.336 404.191 426.681 412.193 431.291 434.635" stroke="black" stroke-width="4.70478" stroke-linecap="round" stroke-linejoin="round"/>
<path d="M230.809 270.556C210.202 276.86 176.782 276.358 162.648 275.319C167.236 337.128 222.928 332.953 222.693 332.482C282.738 327.483 269.153 266.262 269.859 266.498C252.451 262.44 230.574 270.556 230.809 270.556Z" fill="#473011" stroke="black" stroke-width="4.70478" stroke-linecap="round" stroke-linejoin="round"/>
<path d="M188.76 324.249C201.188 311.369 233.408 290.233 262.86 308.723C256.273 321.74 232.232 343.068 188.76 324.249Z" fill="#DD6A26" stroke="black" stroke-width="4.70478" stroke-linecap="round" stroke-linejoin="round"/>
<path d="M261.39 265.674C227.939 303.736 192.092 289.179 178.351 277.142C207.579 277.142 227.104 271.908 227.986 271.32C259.214 261.087 262.037 266.027 261.39 265.674Z" fill="#F4E7C1" stroke="black" stroke-width="4.70478" stroke-linecap="round" stroke-linejoin="round"/>
<path d="M175.704 177.208C162.315 164.72 133.255 152.496 124.128 203.496" stroke="black" stroke-width="9.40956" stroke-linecap="round" stroke-linejoin="round"/>
<path d="M236.572 185.147C252.667 165.152 287.819 141.51 299.675 206.907" stroke="black" stroke-width="9.40956" stroke-linecap="round" stroke-linejoin="round"/>
<path d="M122.893 152.214C127.931 140.412 145.511 121.127 175.527 138.393" stroke="black" stroke-width="9.40956" stroke-linecap="round" stroke-linejoin="round"/>
<path d="M238.514 138.864C248.747 129.199 275.599 119.116 301.146 156.095" stroke="black" stroke-width="9.40956" stroke-linecap="round" stroke-linejoin="round"/>
<ellipse cx="266.918" cy="205.437" rx="31.522" ry="36.8737" fill="#FAEEC8"/>
<ellipse cx="264.154" cy="207.966" rx="16.1727" ry="21.5244" fill="#40290D"/>
<ellipse cx="154.18" cy="204.32" rx="26.9937" ry="35.7563" fill="#FAEEC8"/>
<ellipse cx="160.297" cy="207.672" rx="13.5851" ry="23.4651" fill="#40290D"/>
<path d="M197.473 222.449C196.297 227.389 191.334 237.34 180.889 237.622C181.242 238.151 172.479 261.852 204.707 257.147" stroke="black" stroke-width="4.70478" stroke-linecap="round" stroke-linejoin="round"/>
<path d="M366.012 213.451C358.053 212.118 343.065 217.25 346.781 248.443" stroke="black" stroke-width="4.70478" stroke-linecap="round" stroke-linejoin="round"/>
<path d="M205.639 459.805V390.057H233.279V459.805H205.639Z" stroke="black" stroke-width="4.70478" stroke-linecap="round" stroke-linejoin="round"/>
<path d="M76.3744 80.5411C73.728 74.5621 66.7061 62.3454 59.79 61.3103" stroke="black" stroke-width="5.88098" stroke-linecap="round" stroke-linejoin="round"/>
<path d="M67.0828 107.711C60.006 107.731 43.9941 105.912 36.5605 98.4781" stroke="black" stroke-width="5.88098" stroke-linecap="round" stroke-linejoin="round"/>
<path d="M403.944 85.8339C410.825 80.3058 424.445 67.1324 423.881 58.6638" stroke="black" stroke-width="5.88098" stroke-linecap="round" stroke-linejoin="round"/>
<path d="M414.59 111.71C422.333 106.417 439.937 97.4192 448.405 103.771" stroke="black" stroke-width="5.88098" stroke-linecap="round" stroke-linejoin="round"/>
<path d="M415.237 146.878C419.883 150.172 431.563 156.5 441.114 155.465" stroke="black" stroke-width="5.88098" stroke-linecap="round" stroke-linejoin="round"/>
</svg>
