<svg width="333" height="559" viewBox="0 0 333 559" fill="none" xmlns="http://www.w3.org/2000/svg">
<path d="M245.109 549.778C178.113 560.458 91.6154 554.228 56.7412 549.778V502.73L144.368 465.386L240.287 510.022C242.227 523.274 245.909 549.778 245.109 549.778Z" fill="#A589C1" stroke="black" stroke-width="4.70478" stroke-linecap="round"/>
<path d="M327.796 466.856C327.09 372.195 272.848 348.217 245.815 348.06L221.115 325.594C179.497 333.083 96.65 348.06 98.2026 348.06C39.5104 362.703 19.9268 419.514 22.2792 420.102C-26.2389 530.253 30.7478 545.543 30.1009 545.543C86.9111 564.597 143.663 499.083 143.663 496.496C201.12 539.603 220.056 544.779 221.115 545.543C354.672 582.887 328.266 466.856 327.796 466.856Z" fill="#A589C1" stroke="black" stroke-width="4.70478" stroke-linecap="round"/>
<path d="M208.588 460.681C228.289 462.72 271.456 471.408 286.511 489.851" stroke="black" stroke-width="4.70478" stroke-linecap="round"/>
<path d="M246.932 468.444C245.854 459.054 244.862 436.828 249.52 423.043" stroke="black" stroke-width="4.70478" stroke-linecap="round"/>
<path d="M84.9707 456.799C70.6995 457.466 40.4047 463.915 33.3945 484.381" stroke="black" stroke-width="4.70478" stroke-linecap="round"/>
<path d="M63.5643 460.975C62.2704 450.84 61.306 426.536 67.7986 410.398" stroke="black" stroke-width="4.70478" stroke-linecap="round"/>
<path d="M39.8036 186.098C23.3368 188.705 0.283381 208.399 39.8036 266.315V186.098Z" fill="#F0C19A" stroke="black" stroke-width="4.70478" stroke-linecap="round"/>
<path d="M314.034 192.567C348.896 257.07 303.233 275.038 276.043 275.959C260.576 325.536 239.992 328.712 242.757 329.417C177.007 382.875 94.9675 348.413 94.2618 347.06C22.3963 325.36 40.7449 238.556 40.7449 237.909C40.098 161.339 29.8651 138.227 31.2178 136.874C32.5704 103.647 47.5081 63.7148 48.155 64.3617C73.2079 -8.15072 188.475 3.37599 188.475 4.0229C279.983 16.9022 301.037 69.1253 301.684 68.4196C315.916 83.2985 313.563 192.097 314.034 192.567Z" fill="#F0C19A" stroke="black" stroke-width="4.70478" stroke-linecap="round"/>
<path d="M314.976 164.757C183.22 48.3326 70.5167 97.4576 30.6299 136.58C37.8635 69.3016 53.3305 52.3643 52.6835 52.3643C161.246 -51.6702 286.041 47.3655 285.276 46.601C321.35 74.4395 313.727 162.333 314.976 164.757C314.995 164.775 315.015 164.792 315.034 164.809C315.013 164.809 314.994 164.791 314.976 164.757Z" fill="#D8CDE4"/>
<path d="M30.6299 136.58C70.5225 97.4518 183.253 48.3182 315.034 164.809C313.505 164.809 321.856 74.8297 285.276 46.601C286.041 47.3655 161.246 -51.6702 52.6835 52.3643C53.3305 52.3643 37.8635 69.3016 30.6299 136.58Z" stroke="black" stroke-width="4.70478" stroke-linecap="round"/>
<path d="M317.387 200.095C307.899 193.684 286.512 189.203 276.867 222.56C272.789 210.661 264.458 176.241 263.752 133.757C262.87 134.933 165.658 59.6569 45.6857 129.876C46.9005 133.693 39.6382 143.428 38.7836 178.608C38.9039 179.898 38.9029 180.558 38.7462 180.393C38.7568 179.791 38.7693 179.196 38.7836 178.608C38.1458 171.768 34.0992 147.199 31.8066 133.757C74.5221 97.0795 191.44 52.0469 317.387 165.338C317.387 165.926 312.623 177.629 317.387 200.095Z" fill="#41290E" stroke="black" stroke-width="4.70478" stroke-linecap="round"/>
<path d="M174.657 396.43C243.136 382.687 249.278 346.857 243.788 330.659C180.797 389.893 98.1248 351.75 97.7863 351.439C95.7366 408.099 175.009 396.447 174.657 396.43Z" fill="#A589C1" stroke="black" stroke-width="4.70478" stroke-linecap="round" stroke-linejoin="round"/>
<path d="M138.748 372.819C141.72 368.768 134.114 363.394 129.939 361.213C140.094 362.285 160.341 364.485 160.094 364.709C158.215 369.565 150.321 373.37 150.614 373.384C138.911 405.268 138.866 372.824 138.748 372.819Z" fill="#4D3310" stroke="black" stroke-width="4.70478" stroke-linecap="round" stroke-linejoin="round"/>
<path d="M172.302 511.728C145.283 505.131 147.194 477.885 147.304 477.206H131.371C134.758 499.319 125.058 509.434 119.785 511.728C78.8536 516.762 85.2051 454.8 84.1465 456.388C88.2865 443.388 93.7555 432.72 99.5004 424.101C114.157 402.112 130.61 393.461 131.371 393.461C199.061 365.174 206.882 450.095 207.529 449.566C217.057 510.963 171.949 512.433 172.302 511.728Z" fill="#F0C19A"/>
<path d="M104.906 442.744C120.295 437.686 150.319 437.498 147.308 477.206M147.308 477.206C147.308 476.501 144.603 504.965 172.302 511.728C171.949 512.433 217.057 510.963 207.529 449.566C206.882 450.095 199.061 365.174 131.371 393.461C130.61 393.461 114.157 402.112 99.5004 424.101M147.308 477.206H131.371C134.758 499.319 125.058 509.434 119.785 511.728C78.8536 516.762 85.2051 454.8 84.1465 456.388C88.2865 443.388 93.7555 432.72 99.5004 424.101M99.5004 424.101C114.887 419.435 148.649 414.221 160.599 430.688" stroke="black" stroke-width="4.70478" stroke-linecap="round"/>
<path d="M114.081 406.223C128.685 401.146 161.776 395.825 177.302 415.162" stroke="black" stroke-width="4.70478" stroke-linecap="round"/>
<path d="M132.429 478.088C128.175 477.187 121.279 472.654 127.724 461.739" stroke="black" stroke-width="4.70478" stroke-linecap="round"/>
<path d="M110.61 187.837C97.2213 175.349 68.1615 163.125 59.0342 214.125" stroke="black" stroke-width="9.40956" stroke-linecap="round" stroke-linejoin="round"/>
<path d="M171.479 195.776C187.573 175.781 222.725 152.139 234.581 217.536" stroke="black" stroke-width="9.40956" stroke-linecap="round" stroke-linejoin="round"/>
<path d="M131.429 235.237C130.253 240.177 125.29 250.128 114.845 250.41C115.198 250.94 106.435 274.64 138.663 269.935" stroke="black" stroke-width="4.70478" stroke-linecap="round" stroke-linejoin="round"/>
<ellipse cx="201.824" cy="216.066" rx="31.522" ry="36.8737" fill="#FAEEC8"/>
<ellipse cx="199.06" cy="218.595" rx="16.1727" ry="21.5244" fill="#40290D"/>
<ellipse cx="89.0865" cy="214.948" rx="26.9937" ry="35.7563" fill="#FAEEC8"/>
<ellipse cx="95.2022" cy="218.301" rx="13.5851" ry="23.4651" fill="#40290D"/>
<path d="M113.905 316.773C116.022 316.479 139.252 291.132 179.596 319.537" stroke="black" stroke-width="4.70478" stroke-linecap="round"/>
<path d="M221.467 257.493C213.331 270.412 201.577 297.966 219.644 304.835C219.644 304.247 249.519 314.362 221.467 257.493Z" fill="#422F12" stroke="black" stroke-width="4.70478" stroke-linecap="round"/>
<path d="M221.711 274.96C217.654 281.459 211.792 295.321 220.802 298.777C220.802 298.481 235.7 303.57 221.711 274.96Z" fill="#FAEEC8"/>
<path d="M108.494 129.405C102.397 140.854 82.806 162.833 53.2129 159.163" stroke="black" stroke-width="9.40956" stroke-linecap="round"/>
<path d="M187.416 131.346C190.474 138.971 205.741 156.281 242.344 164.515" stroke="black" stroke-width="9.40956" stroke-linecap="round"/>
<path d="M306.213 217.443C299.862 217.855 287.277 224.63 287.747 248.436" stroke="black" stroke-width="4.70478" stroke-linecap="round"/>
</svg>
