<svg width="431" height="531" viewBox="0 0 431 531" fill="none" xmlns="http://www.w3.org/2000/svg">
<path d="M63.73 372.966C66.2392 359.165 87.2723 345.224 97.4752 339.978C131.22 407.468 170.482 413.796 172.05 414.553C233.267 430.236 278.801 372.966 279.559 372.966C334.156 295.093 359.343 333.2 365.111 361.988C367.202 360.42 371.384 357.121 371.384 356.472C417.676 416.121 407.509 471.065 407.509 470.308C393.708 514.263 352.042 511.119 332.934 504.053C332.682 509.804 332.329 521.304 332.934 521.304C211.257 536.23 103.748 520.493 103.748 521.304C98.9893 511.083 104.559 445.161 103.748 445.161C88.8225 489.885 40.2057 478.149 38.6374 475.013C-0.299349 452.43 6.19011 394.435 14.3019 368.261C48.0471 418.5 64.5412 371.398 63.73 372.966Z" fill="#A589C1" stroke="black" stroke-width="5.40788" stroke-linecap="round"/>
<path d="M101.207 59.0386C45.6135 154.39 78.0428 249.18 101.207 284.655C90.0663 318.941 101.207 337.004 97.7995 338.68C186.164 511.949 309.68 341.276 308.815 342.141C337.628 306.449 359.144 337.544 366.301 357.554C386.202 352.751 378.018 329.27 371.438 318.13C350.023 300.122 365.436 222.032 366.301 225.493C389.501 123.446 334.557 63.3649 335.368 65.0413C195.52 -70.5343 101.207 58.2274 101.207 59.0386Z" fill="#D8CDE4" stroke="black" stroke-width="5.40788" stroke-linecap="round"/>
<path d="M303.245 182.933C206.379 -17.9371 124.514 77.8581 95.6904 150.864C102.504 185.313 95.6904 237.985 95.6904 242.204C95.6904 289.62 158.242 308.793 189.517 312.452C309.031 320.834 302.758 182.447 303.245 182.933Z" fill="#FFCFA7" stroke="black" stroke-width="5.40788" stroke-linecap="round"/>
<path d="M336.179 428.829C333.323 449.379 309.572 457.365 298.053 458.789C280.402 450.526 269.535 435.373 266.309 428.829C233.092 399.74 256.47 393.373 257.002 393.501C250.581 374.642 269.175 373.182 269.175 373.561C263.875 363.61 278.044 354.633 278.801 356.418C276.692 336.084 315.52 345.007 315.142 345.007C354.728 348.901 336.557 428.829 336.179 428.829Z" fill="#FFCFA7" stroke="black" stroke-width="5.40788" stroke-linecap="round"/>
<ellipse cx="136.357" cy="175.745" rx="24.8222" ry="33.637" fill="#FDEDD4"/>
<ellipse cx="140.359" cy="180.72" rx="16.9267" ry="24.1192" fill="#3C220F"/>
<path d="M154.96 147.732C140.467 138.953 111.005 133.823 109.102 183.532" stroke="black" stroke-width="5.40788" stroke-linecap="round"/>
<ellipse cx="241.379" cy="179.097" rx="24.8222" ry="33.637" fill="#FDEDD4"/>
<ellipse cx="236.62" cy="183.099" rx="16.9267" ry="24.1192" fill="#3C220F"/>
<path d="M222.56 152.761C237.395 141.044 266.958 131.995 266.526 189.534" stroke="black" stroke-width="5.40788" stroke-linecap="round"/>
<path d="M160.207 110.197C149.68 104.951 126.267 99.9761 116.836 122.04" stroke="black" stroke-width="5.40788" stroke-linecap="round"/>
<path d="M211.474 115.118C218.36 106.592 237.951 95.9419 261.226 121.554" stroke="black" stroke-width="5.40788" stroke-linecap="round"/>
<path d="M109.373 80.5618C102.397 90.5663 89.991 119.142 96.1776 153.406" stroke="black" stroke-width="5.40788" stroke-linecap="round"/>
<path d="M288.806 84.1853C297.458 99.6879 312.763 141.617 304.759 185.313" stroke="black" stroke-width="5.40788" stroke-linecap="round"/>
<path d="M119.864 287.305C125.615 311.46 145.498 362.042 179.026 371.127" stroke="black" stroke-width="5.40788" stroke-linecap="round"/>
<path d="M335.747 190.775C332.682 235.696 302.878 332.559 208.175 360.636" stroke="black" stroke-width="5.40788" stroke-linecap="round"/>
<path d="M342.56 271.406C342.848 278.707 340.516 296.488 328.878 309.207" stroke="black" stroke-width="5.40788" stroke-linecap="round"/>
<path d="M47.669 97.0017C44.3702 91.72 35.5878 80.2589 26.8486 76.6681" stroke="black" stroke-width="5.40788" stroke-linecap="round"/>
<path d="M38.7461 133.289C31.3012 132.946 13.7292 131.569 3 128.8" stroke="black" stroke-width="5.40788" stroke-linecap="round"/>
<path d="M372.899 79.6425C374.882 74.0183 382.223 60.5851 395.721 51.846" stroke="black" stroke-width="5.40788" stroke-linecap="round"/>
<path d="M388.744 104.951C392.403 100.661 404.384 91.5832 423.03 89.5931" stroke="black" stroke-width="5.40788" stroke-linecap="round"/>
<path d="M396.207 149.675C400.029 152.307 411.641 156.781 427.519 153.622" stroke="black" stroke-width="5.40788" stroke-linecap="round"/>
<path d="M68.4355 365.882C75.2495 369.812 87.9364 386.778 84.1725 423.205" stroke="black" stroke-width="5.40788" stroke-linecap="round"/>
<path d="M337.639 506.378C323.777 499.564 294.798 479.977 289.779 456.139" stroke="black" stroke-width="5.40788" stroke-linecap="round"/>
<path d="M341.588 401.195C349.429 406.171 367.621 420.047 377.658 435.752" stroke="black" stroke-width="5.40788" stroke-linecap="round"/>
<path d="M104.56 449.866C104.037 437.302 104.246 406.214 109.264 382.376" stroke="black" stroke-width="5.40788" stroke-linecap="round"/>
<path d="M278.207 357.77C285.057 357.463 300.379 358.83 306.869 366.747" stroke="black" stroke-width="5.40788" stroke-linecap="round"/>
<path d="M269.23 374.372C273.395 374.084 283.702 376.016 291.619 386.053" stroke="black" stroke-width="5.40788" stroke-linecap="round"/>
<path d="M258.468 395.03C261.586 395.193 269.175 397.215 274.583 404.007" stroke="black" stroke-width="5.40788" stroke-linecap="round"/>
<path d="M73.3021 340.249C100.644 300.966 82.4955 294.534 70.0033 296.228L67.083 312.236V331.163C69.156 334.426 73.3021 340.811 73.3021 340.249Z" fill="#FFCFA7" stroke="black" stroke-width="5.40788" stroke-linecap="round"/>
<path d="M10.4083 354.633C24.9014 408.874 58.6466 387.946 58.2681 386.54C66.0545 370.419 63.534 360.197 59.1706 354.633C79.217 354.633 67.84 331.596 68.2185 331.596C73.5723 323.809 66.0554 313.155 66.0554 312.776C73.6539 305.864 66.4238 288.499 66.0688 288.967C70.955 263.852 29.2293 273.083 30.9583 273.461C-10.8987 290.117 10.7869 354.255 10.4083 354.633Z" fill="#FFCFA7"/>
<path d="M53.2928 349.983C55.1556 350.764 57.3275 352.283 59.1706 354.633M66.0554 289.036C71.0306 263.835 29.2277 273.083 30.9583 273.461C-10.8987 290.117 10.7869 354.255 10.4083 354.633C24.9014 408.874 58.6466 387.946 58.2681 386.54C66.0545 370.419 63.534 360.197 59.1706 354.633M66.0554 289.036C66.0554 287.63 73.8427 305.692 66.0554 312.776C66.0554 313.155 73.5723 323.809 68.2185 331.596C67.84 331.596 79.217 354.633 59.1706 354.633M66.0554 289.036C56.1409 288.693 34.1813 289.923 25.6585 297.58" stroke="black" stroke-width="5.40788" stroke-linecap="round"/>
<path d="M66.7579 313.155C60.5208 311.28 45.6996 309.651 36.3115 318.13" stroke="black" stroke-width="5.40788" stroke-linecap="round"/>
<path d="M69.2459 332.299C61.6929 330.532 45.0943 328.697 39.124 335.49" stroke="black" stroke-width="5.40788" stroke-linecap="round"/>
<path d="M230.185 232.956C192.2 240.657 157.143 240.671 144.362 239.716C144.362 306.395 198.225 295.201 198.225 295.633C241.758 285.683 229.374 231.712 230.185 232.956Z" stroke="black" stroke-width="3.24473" stroke-linecap="round"/>
<path d="M231.753 258.103C212.195 255.164 170.363 256.394 159.504 284.818C159.125 284.818 213.366 320.78 231.753 258.103Z" fill="#DD6746" stroke="black" stroke-width="3.24473" stroke-linecap="round"/>
<path d="M159.503 240.906C165.257 242.16 203.938 236.922 222.559 234.146C218.558 252.1 187.462 255.291 188.273 254.479C164.998 255.128 159.395 245.701 159.503 240.906Z" fill="#F4EBD8" stroke="black" stroke-width="3.24473" stroke-linecap="round"/>
<path d="M175.078 204.186C168.841 205.935 159.233 211.822 170.697 221.383" stroke="black" stroke-width="5.40788" stroke-linecap="round"/>
</svg>
