<svg width="464" height="526" viewBox="0 0 464 526" fill="none" xmlns="http://www.w3.org/2000/svg">
<path d="M100.022 308.461C108.034 323.827 107.775 335.099 106.403 352.373C105.998 357.48 106.021 360.458 104.51 365.352C102.646 371.392 100.882 374.732 96.8852 379.629C90.3131 387.682 75.0373 395.258 74.3884 393.852C73.7394 392.446 67.4122 404.938 47.1326 389.634C26.8531 374.329 9.18776 354.645 5.27565 349.561C1.36353 344.478 1.67354 342.424 2.8421 337.934C3.55014 335.214 6.46538 331.715 6.46538 331.715C6.46538 331.715 -0.325962 320.607 2.8421 314.518C4.40699 311.511 9.06116 308.461 9.06116 308.461C9.06116 308.461 8.23345 300.206 11.4406 296.889C15.7418 292.44 21.5534 295.374 27.2857 296.889C23.9869 292.076 20.781 285.486 25.0685 280.827C29.1584 276.383 40.535 280.827 40.535 280.827L77.0923 315.897C75.4104 311.75 75.2279 308.781 76.3893 304.46C78.1109 298.053 81.3896 292.382 88.0163 292.076C95.9406 291.709 96.3539 301.427 100.022 308.461Z" fill="#FFCFA7"/>
<path d="M72.9823 356.159C72.9823 356.159 68.9259 346.375 70.1702 340.152C71.3121 334.441 76.6537 333.046 77.7954 327.335C78.6726 322.947 77.3669 320.364 77.0923 315.897M77.0923 315.897C75.4104 311.75 75.2279 308.781 76.3893 304.46C78.1109 298.053 81.3896 292.382 88.0162 292.076C95.9406 291.709 96.3539 301.427 100.022 308.461C108.034 323.827 107.775 335.099 106.403 352.373C105.998 357.48 106.021 360.458 104.51 365.352C102.646 371.392 100.882 374.732 96.8852 379.629C90.3131 387.682 75.0373 395.258 74.3884 393.852C73.7394 392.446 67.4122 404.938 47.1326 389.634C26.8531 374.329 9.18776 354.645 5.27565 349.561C1.36353 344.478 1.67354 342.424 2.8421 337.934C3.55014 335.214 6.46538 331.715 6.46538 331.715M77.0923 315.897L40.535 280.827C40.535 280.827 29.1584 276.383 25.0685 280.827C20.781 285.486 23.9869 292.076 27.2857 296.889M27.2857 296.889C35.5855 305.019 48.5387 317.709 48.5387 317.709M27.2857 296.889C21.5534 295.374 15.7418 292.44 11.4406 296.889C8.23345 300.206 9.06116 308.461 9.06116 308.461M9.06116 308.461L38.1015 331.715M9.06116 308.461C9.06116 308.461 4.40699 311.511 2.8421 314.518C-0.325962 320.607 6.46538 331.715 6.46538 331.715M6.46538 331.715L29.7193 349.561" stroke="black" stroke-width="2.16315"/>
<path d="M75.0364 389.796C63.7948 393.011 45.239 386.876 45.239 386.876C45.239 386.876 40.7039 414.079 42.3728 431.437C43.468 442.828 44.1886 449.44 48.2133 460.153C52.6691 472.013 54.7839 480.249 64.7614 488.057C74.9187 496.006 83.6104 498.566 96.4516 497.359C108.013 496.272 123.437 484.867 123.437 484.867L114.298 523.587L344.457 524.831V470.049C344.457 470.049 350.405 482.166 357.274 486.597C369.94 494.767 382.618 490.689 395.724 483.244C412.589 473.664 414.23 458.179 419.032 439.386C424.066 419.682 419.032 387.308 419.032 387.308C419.032 387.308 405.15 393.643 395.724 393.582C386.522 393.521 380.815 392.183 373.011 387.308C361.335 380.015 353.921 357.673 353.921 357.673C353.921 357.673 354.948 350.967 343.646 371.139C332.343 391.31 326.913 400.443 312.118 415.862C302.902 425.467 298.019 431.789 286.322 438.143C270.566 446.701 259.27 448.792 241.383 447.552C224.607 446.389 215.68 441.165 200.607 433.708C182.17 424.586 173.831 415.907 157.777 403.045C146.35 393.89 138.799 389.754 129.44 378.494C119.529 366.57 113.432 343.721 109.701 344.045C105.97 344.37 105.734 362.333 98.777 371.571C91.7456 380.908 86.2738 386.582 75.0364 389.796Z" fill="#A589C1"/>
<path d="M344.187 391.689C347.424 377.035 356.193 355.186 356.193 355.186C356.193 355.186 358.058 372.969 363.331 382.766C366.62 388.877 368.211 393.138 373.985 396.988C381.574 402.049 388.138 401.651 397.131 400.125C406.406 398.551 415.247 387.849 418.492 388.985C421.736 390.12 421.192 405.778 421.142 416.619C421.058 434.778 421.522 446.316 413.138 462.424C406.097 475.952 401.299 486.304 386.91 491.356C376.907 494.868 369.31 495.965 359.762 491.356C351.673 487.451 344.187 474.429 344.187 474.429C344.187 474.429 337.218 423.24 344.187 391.689Z" fill="#A589C1"/>
<path d="M344.187 523.803V474.429M344.187 474.429C344.187 474.429 337.218 423.24 344.187 391.689C347.424 377.035 356.193 355.186 356.193 355.186C356.193 355.186 358.058 372.969 363.331 382.766C366.62 388.877 368.211 393.138 373.985 396.988C381.574 402.049 388.138 401.651 397.131 400.125C406.406 398.551 415.247 387.849 418.492 388.985C421.736 390.12 421.192 405.778 421.142 416.619C421.058 434.778 421.522 446.316 413.138 462.424C406.097 475.952 401.299 486.304 386.91 491.356C376.907 494.868 369.31 495.965 359.762 491.356C351.673 487.451 344.187 474.429 344.187 474.429Z" stroke="black" stroke-width="4.32631" stroke-linecap="round"/>
<path d="M122.248 484.218L113.487 522.83" stroke="black" stroke-width="4.32631" stroke-linecap="round"/>
<path d="M44.5916 388.011C44.5916 388.011 37.4066 431.697 47.1874 456.692C52.8751 471.226 55.251 482.353 68.6026 490.437C80.0977 497.396 89.5766 498.867 102.618 495.628C116.792 492.108 123.281 484.114 131.821 472.266C138.372 463.177 140.382 456.814 143.448 446.038C146.734 434.489 147.341 415.538 147.341 415.538" stroke="black" stroke-width="4.32631" stroke-linecap="round"/>
<path d="M44.8613 387.849C44.8613 387.849 57.1091 400.41 64.4379 403.262C72.4878 406.394 78.7676 406.996 86.5561 403.262C92.9269 400.207 95.0325 395.988 99.0483 390.175C104.984 381.581 106.295 365.623 108.728 365.244C111.162 364.866 117.81 379.825 121.167 390.175C124.424 400.221 124.98 406.299 125.709 416.835C126.215 424.146 125.709 435.601 125.709 435.601" stroke="black" stroke-width="4.32631" stroke-linecap="round"/>
<path d="M177.571 419.323C146.311 398.521 125.843 383.947 111.919 349.075C106.668 335.922 103.213 313.869 103.213 313.869C103.213 313.869 84.3601 281.183 78.3364 258.114C71.1687 230.663 72.3285 213.916 74.0101 185.594C75.8977 153.804 76.7387 134.675 89.6389 105.558C100.741 80.4997 110.154 67.1073 129.819 48.0179C150.324 28.1142 164.252 17.4701 191.361 8.43217C222.851 -2.06619 244.206 -2.56325 276.319 5.83638C310.974 14.9009 332.319 26.2983 353.76 54.994C368.99 75.3773 373.007 90.4606 378.312 115.346C384.617 144.924 382.032 162.774 378.312 192.787C374.455 223.902 360.323 239.261 358.357 270.552C357.698 281.028 356.462 287.106 358.357 297.429C360.006 306.417 366.144 319.494 366.144 319.494C366.144 319.494 355.619 355.294 343.972 375.898C331.316 398.286 324.339 412.932 303.25 427.651C282.659 442.023 267.35 448.718 242.249 447.985C214.634 447.178 200.571 434.629 177.571 419.323Z" fill="#D8CDE4"/>
<path d="M136.467 308.185C136.191 307.782 135.775 307.486 135.295 307.373C134.815 307.26 134.313 307.338 133.896 307.59C133.478 307.842 133.177 308.251 133.054 308.729C132.931 309.206 132.999 309.712 133.228 310.144C134.474 312.465 135.824 314.81 137.179 317.098C148.707 336.167 161.978 354.478 179.892 368.89C183.181 371.465 186.653 373.865 190.391 375.94C210.587 386.421 232.404 389.396 253.899 391.323C256.542 391.523 259.194 391.691 261.889 391.791C262.379 391.805 262.863 391.641 263.237 391.318C263.61 390.994 263.842 390.54 263.881 390.052C263.92 389.564 263.764 389.079 263.448 388.7C263.131 388.321 262.679 388.081 262.193 388.017C259.636 387.665 257.013 387.247 254.448 386.815C233.593 383.078 212.153 378.726 194.276 369.041C191.012 367.168 187.868 364.971 184.829 362.59C168.191 349.242 154.214 332.07 141.044 314.533C139.493 312.437 137.906 310.247 136.467 308.185Z" fill="black"/>
<path d="M260.458 370.046C260.216 370.124 260.013 370.297 259.895 370.524C259.776 370.752 259.751 371.015 259.826 371.259C259.901 371.502 260.069 371.706 260.295 371.828C260.521 371.949 260.786 371.979 261.03 371.907C263.246 371.245 265.464 370.519 267.657 369.765C275.699 366.939 283.714 363.898 291.133 359.257C291.18 359.227 291.227 359.197 291.273 359.167C296.994 355.535 302.217 350.947 306.851 346.129C308.565 344.381 310.257 342.641 311.974 340.927C316.661 336.239 321.348 331.461 325.596 326.237C328.688 322.449 331.561 318.492 334.296 314.488C336.263 311.603 338.052 308.621 339.747 305.611C343.891 298.214 347.563 290.632 351.045 282.962C351.321 282.352 351.601 281.71 351.855 281.101C352.756 278.941 353.54 276.766 354.209 274.524C354.344 274.065 354.328 273.565 354.135 273.12C353.941 272.676 353.59 272.325 353.151 272.142C352.712 271.959 352.215 271.957 351.763 272.133C351.311 272.309 350.945 272.651 350.714 273.07C349.609 275.053 348.546 277.098 347.555 279.181C347.274 279.77 346.983 280.397 346.71 281C343.271 288.576 339.637 296.071 335.599 303.278C333.949 306.209 332.23 309.103 330.393 311.845C327.735 315.806 324.993 319.686 322.055 323.391C318.026 328.493 313.619 333.339 309.128 338.186C307.455 339.988 305.818 341.807 304.181 343.601C299.74 348.55 295.149 353.111 289.701 356.829C289.659 356.858 289.616 356.888 289.573 356.918C282.721 361.518 274.806 364.781 266.94 367.763C264.794 368.562 262.598 369.344 260.458 370.046Z" fill="black"/>
<path d="M104.833 148.784C104.837 148.699 104.807 148.616 104.749 148.552C104.692 148.489 104.612 148.451 104.527 148.446C104.442 148.441 104.358 148.471 104.294 148.528C104.23 148.584 104.191 148.664 104.185 148.749C103.927 153.109 103.816 157.492 103.75 161.917C103.717 164.226 103.701 166.585 103.697 168.902C103.684 175.83 103.483 182.815 103.789 189.77C104.106 196.851 104.643 203.928 105.77 210.975C106.897 217.947 108.474 224.931 110.938 231.683C111.493 233.195 112.045 234.677 112.616 236.18C116.331 246.014 120.62 255.952 126.773 264.784C130.493 270.182 134.742 275.113 139.12 279.878C139.939 280.77 140.745 281.638 141.568 282.513C149.162 290.655 157.773 298.195 167.391 304.057C172.714 307.349 178.246 310.206 183.817 312.873C184.745 313.317 185.642 313.741 186.576 314.177C195.498 318.217 204.82 320.064 214.108 321.582C222.725 322.931 231.363 323.847 240.021 324.545C244.461 324.896 248.847 325.196 253.305 325.388C254.108 325.418 254.881 325.109 255.455 324.544C256.028 323.98 256.355 323.203 256.362 322.389C256.37 321.574 256.059 320.792 255.496 320.216C254.934 319.641 254.167 319.317 253.363 319.331C249.114 319.386 244.718 319.291 240.356 319.105C231.819 318.732 223.291 317.984 214.881 316.667C205.841 315.204 196.734 313.332 188.68 309.668C187.759 309.238 186.876 308.821 185.964 308.385C180.488 305.764 175.113 302.983 170.008 299.826C160.791 294.201 152.716 286.987 145.366 278.974C144.572 278.114 143.798 277.255 143.013 276.368C138.824 271.629 134.936 266.719 131.404 261.592C125.578 253.228 120.972 244.048 117.042 234.431C116.441 232.967 115.861 231.517 115.277 230.034C112.811 223.744 111.147 217.013 109.816 210.255C108.482 203.423 107.399 196.52 106.593 189.548C105.804 182.706 105.004 175.794 104.778 168.885C104.702 166.577 104.659 164.224 104.643 161.92C104.616 157.508 104.67 153.125 104.833 148.784Z" fill="black"/>
<path d="M153.215 88.8446C152.111 88.2336 151.007 87.6226 149.903 87.0116C150.982 87.5928 151.456 88.002 151.452 88.0106C151.446 88.0202 151.441 88.0306 151.435 88.0415C150.405 89.9277 149.394 91.8189 148.385 93.7133C140.669 108.527 132.402 123.289 128.459 140.019C128.425 140.175 128.392 140.331 128.359 140.488C124.176 163.626 127.313 186.778 131.074 209.432C131.465 211.616 131.882 213.841 132.336 216.016C132.516 216.858 133.022 217.587 133.753 218.043C134.482 218.498 135.377 218.642 136.23 218.445C137.083 218.247 137.822 217.725 138.278 216.995C138.734 216.265 138.867 215.387 138.659 214.552C138.167 212.558 137.674 210.34 137.223 208.229C132.778 186.16 129.147 163.309 132.188 141.198C132.212 141.048 132.237 140.899 132.261 140.75C135.251 124.715 141.327 108.826 148.575 93.8107C149.523 91.8868 150.501 89.9781 151.53 88.0935C151.536 88.0826 151.541 88.0723 151.547 88.0626C151.551 88.054 152.152 88.2343 153.215 88.8446Z" fill="black"/>
<path d="M173.136 117.401C153.411 142.253 143.182 159.333 137.931 190.624C135.98 202.248 134.629 209.044 136.038 220.746C137.886 236.093 142.612 244.205 149.99 257.79C157.281 271.212 162.003 278.86 173.136 289.318C185.505 300.935 194.508 305.523 210.18 312.031C230.442 320.445 243.487 324.628 265.341 322.684C287.595 320.705 299.859 313.961 318.608 301.81C337.619 289.489 350.74 281.768 359.87 261.034C366.576 245.807 365.014 235.469 365.873 218.853C367.224 192.722 367.55 177.133 359.87 152.12C355.522 137.955 352.301 130.039 344.566 117.401C332.61 97.8675 324.126 86.2127 304.277 74.7869C291.317 67.3262 283.014 63.3129 268.099 62.2406C249.364 60.8937 238.421 66.3151 221.672 74.6126L221.32 74.7869C198.811 85.9376 188.753 97.7249 173.136 117.401Z" fill="#FFCFA7" stroke="#2E2E2E" stroke-width="4.32631"/>
<path d="M304.656 234.536L212.452 228.317C212.452 228.317 209.311 250.253 214.777 262.44C219.6 273.192 224.723 279.026 234.949 284.883C242.084 288.97 246.861 290.552 255.066 291.102C262.871 291.625 267.596 290.926 274.859 288.02C287.864 282.815 294.119 275.151 300.006 262.44C304.648 252.415 304.656 234.536 304.656 234.536Z" fill="#967A5A"/>
<path d="M272.532 202.197C272.532 202.197 285.129 204.543 285.565 210.579C285.923 215.529 277.94 220.746 277.94 220.746" stroke="black" stroke-width="3.78552" stroke-linecap="round"/>
<path d="M167.079 184.999H178.922" stroke="black" stroke-width="5.40788" stroke-linecap="round"/>
<path d="M179.302 192.462C179.302 192.462 179.856 177.694 185.088 170.56C190.798 162.777 196.797 158.227 206.449 158.122C216.285 158.016 222.598 162.582 228.351 170.56C232.913 176.885 234.03 189.704 234.03 189.704" stroke="black" stroke-width="5.40788" stroke-linecap="round"/>
<path d="M293.84 187.433C293.84 187.433 294.792 175.432 299.248 169.749C304.037 163.641 308.845 160.061 316.607 160.069C323.909 160.077 328.47 163.113 333.209 168.668C338.06 174.353 339.05 186.892 339.05 186.892" stroke="black" stroke-width="5.40788" stroke-linecap="round"/>
<path d="M298.329 108.857C294.269 110.665 289.784 116.374 289.784 116.374C289.784 116.374 299.474 113.668 305.683 114.427C308.815 114.809 310.739 114.783 313.903 115.454C317.948 116.311 320.075 117.213 323.962 118.753C330.477 121.334 338.401 129.407 338.401 129.407C338.401 129.407 335.23 122.319 331.912 118.753C328.622 115.218 326.155 113.755 321.853 111.561C317.605 109.394 315.019 108.195 310.28 107.667C305.618 107.148 302.613 106.948 298.329 108.857Z" fill="#3C2311" stroke="black" stroke-width="0.108158"/>
<path d="M192.01 112.101C186.539 116.543 181.41 126.703 181.41 126.703C181.41 126.703 191.796 119.44 199.364 116.86L199.417 116.842C204.337 115.165 207.241 114.176 212.451 113.994C218.674 113.777 228.134 116.86 228.134 116.86C228.134 116.86 223.123 110.104 218.508 107.775C213.691 105.344 210.218 104.715 204.88 105.504C199.293 106.329 196.395 108.541 192.01 112.101Z" fill="#3C2311"/>
<path d="M339.104 181.592L349.434 181.701" stroke="black" stroke-width="5.40788" stroke-linecap="round"/>
<path d="M232.028 259.466C226.647 262.161 218.509 269.687 218.509 269.687C218.509 269.687 224.062 278.183 230.46 282.341C241.512 289.524 253.826 293.435 266.747 290.832C276.589 288.849 288.216 280.232 288.216 280.232C288.216 280.232 279.656 263.807 270.749 259.466C257.156 252.841 245.549 252.695 232.028 259.466Z" fill="#CC6541"/>
<g filter="url(#filter0_d_1210_4072)">
<ellipse cx="183.735" cy="215.338" rx="18.2246" ry="9.30156" fill="#F6A465"/>
</g>
<g filter="url(#filter1_d_1210_4072)">
<ellipse cx="333.479" cy="212.58" rx="16.9807" ry="8.1659" fill="#F6A465"/>
</g>
<path d="M363.451 303.867C354.439 318.668 353.952 329.933 354.177 347.26C354.244 352.382 354.023 355.353 355.206 360.336C356.667 366.486 358.206 369.936 361.87 375.086C367.894 383.556 382.635 392.127 383.376 390.767C384.116 389.407 389.603 402.291 410.851 388.362C432.099 374.434 451.029 355.962 455.269 351.149C459.509 346.335 459.335 344.265 458.467 339.708C457.94 336.947 455.263 333.263 455.263 333.263C455.263 333.263 462.775 322.628 460.017 316.343C458.654 313.239 454.212 309.888 454.212 309.888C454.212 309.888 455.584 301.705 452.604 298.183C448.607 293.46 442.614 296.003 436.794 297.134C440.404 292.55 444.039 286.188 440.069 281.255C436.282 276.549 424.636 280.231 424.636 280.231L385.838 312.804C387.791 308.778 388.169 305.828 387.297 301.438C386.003 294.932 383.107 289.056 376.515 288.312C368.632 287.422 367.576 297.091 363.451 303.867Z" fill="#FFCFA7"/>
<path d="M387.274 353.25C387.274 353.25 391.969 343.756 391.139 337.464C390.378 331.69 385.14 329.945 384.379 324.171C383.795 319.734 385.268 317.243 385.838 312.804M385.838 312.804C387.791 308.778 388.169 305.828 387.297 301.438C386.003 294.932 383.107 289.056 376.515 288.312C368.632 287.422 367.576 297.091 363.451 303.867C354.439 318.668 353.952 329.933 354.177 347.26C354.244 352.382 354.023 355.353 355.206 360.336C356.667 366.486 358.206 369.936 361.87 375.086C367.894 383.556 382.635 392.127 383.376 390.767C384.116 389.407 389.603 402.291 410.851 388.362C432.099 374.434 451.029 355.962 455.269 351.149C459.509 346.335 459.335 344.265 458.467 339.708C457.94 336.947 455.263 333.263 455.263 333.263M385.838 312.804L424.636 280.231C424.636 280.231 436.282 276.549 440.069 281.255C444.039 286.188 440.404 292.55 436.794 297.134M436.794 297.134C427.974 304.698 414.209 316.502 414.209 316.502M436.794 297.134C442.614 296.003 448.607 293.46 452.604 298.183C455.584 301.705 454.212 309.888 454.212 309.888M454.212 309.888L423.696 331.169M454.212 309.888C454.212 309.888 458.654 313.239 460.017 316.343C462.775 322.628 455.263 333.263 455.263 333.263M455.263 333.263L430.879 349.531" stroke="black" stroke-width="2.16315"/>
<defs>
<filter id="filter0_d_1210_4072" x="163.348" y="203.873" width="40.7755" height="22.9294" filterUnits="userSpaceOnUse" color-interpolation-filters="sRGB">
<feFlood flood-opacity="0" result="BackgroundImageFix"/>
<feColorMatrix in="SourceAlpha" type="matrix" values="0 0 0 0 0 0 0 0 0 0 0 0 0 0 0 0 0 0 127 0" result="hardAlpha"/>
<feMorphology radius="1.08158" operator="dilate" in="SourceAlpha" result="effect1_dropShadow_1210_4072"/>
<feOffset/>
<feGaussianBlur stdDeviation="0.540788"/>
<feComposite in2="hardAlpha" operator="out"/>
<feColorMatrix type="matrix" values="0 0 0 0 0.964706 0 0 0 0 0.643137 0 0 0 0 0.396078 0 0 0 1 0"/>
<feBlend mode="normal" in2="BackgroundImageFix" result="effect1_dropShadow_1210_4072"/>
<feBlend mode="normal" in="SourceGraphic" in2="effect1_dropShadow_1210_4072" result="shape"/>
</filter>
<filter id="filter1_d_1210_4072" x="314.335" y="202.251" width="38.2882" height="20.6581" filterUnits="userSpaceOnUse" color-interpolation-filters="sRGB">
<feFlood flood-opacity="0" result="BackgroundImageFix"/>
<feColorMatrix in="SourceAlpha" type="matrix" values="0 0 0 0 0 0 0 0 0 0 0 0 0 0 0 0 0 0 127 0" result="hardAlpha"/>
<feMorphology radius="1.08158" operator="dilate" in="SourceAlpha" result="effect1_dropShadow_1210_4072"/>
<feOffset/>
<feGaussianBlur stdDeviation="0.540788"/>
<feComposite in2="hardAlpha" operator="out"/>
<feColorMatrix type="matrix" values="0 0 0 0 0.964706 0 0 0 0 0.643137 0 0 0 0 0.396078 0 0 0 1 0"/>
<feBlend mode="normal" in2="BackgroundImageFix" result="effect1_dropShadow_1210_4072"/>
<feBlend mode="normal" in="SourceGraphic" in2="effect1_dropShadow_1210_4072" result="shape"/>
</filter>
</defs>
</svg>
