<svg width="356" height="532" viewBox="0 0 356 532" fill="none" xmlns="http://www.w3.org/2000/svg">
<path d="M47.14 269.023C47.9347 288.525 42.976 318.83 42.976 318.83L89.2134 400.002C89.2134 400.002 125.195 435.622 154.973 440.885C202.546 449.294 226.111 413.428 265.727 385.779C281.939 374.464 285.725 352.649 305.421 354.359C327.245 356.255 338.03 400.002 338.03 400.002C338.03 400.002 345.391 382.332 347.494 370.367C354.135 332.581 321.726 275.567 321.726 275.567C321.726 275.567 326.539 267.05 329.107 261.344C343.796 228.698 341.565 205.736 338.03 170.113C332.814 117.558 325.301 80.9036 286.493 45.0826C249.288 10.7413 214.221 -1.98118 163.842 3.06333C116.24 7.82974 86.3621 24.8218 56.6038 62.2796C26.4336 100.256 21.3969 133.495 23.3994 181.956C24.8545 217.169 45.7051 233.809 47.14 269.023Z" fill="#D8CDE4"/>
<path d="M305.42 306.986L321.726 275.567M321.726 275.567C321.726 275.567 326.539 267.05 329.107 261.344C343.795 228.698 341.565 205.736 338.03 170.113C332.814 117.558 325.301 80.9036 286.493 45.0826C249.288 10.7413 214.221 -1.98118 163.842 3.06333C116.24 7.82974 86.3621 24.8218 56.6038 62.2796C26.4336 100.256 21.3969 133.495 23.3994 181.956C24.8545 217.169 45.7051 233.809 47.14 269.023C47.9347 288.525 42.976 318.83 42.976 318.83L89.2134 400.002C89.2134 400.002 125.195 435.622 154.973 440.885C202.546 449.294 226.111 413.428 265.727 385.779C281.939 374.464 285.725 352.649 305.42 354.359C327.245 356.255 338.03 400.002 338.03 400.002C338.03 400.002 345.391 382.332 347.494 370.367C354.135 332.581 321.726 275.567 321.726 275.567Z" stroke="black" stroke-width="3.24473" stroke-linecap="round"/>
<path d="M277.3 348.681L295.146 327.644" stroke="black" stroke-width="3.24473" stroke-linecap="round"/>
<path d="M259.832 95.43C259.832 95.43 279.792 146.567 278.868 180.658C278.17 206.381 264.97 245.066 264.97 245.066" stroke="black" stroke-width="4.32631" stroke-linecap="round"/>
<path d="M118.957 362.309C118.957 362.309 139.112 372.479 153.135 373.936C191.395 377.912 209.277 349.045 237.173 322.561C278.919 282.929 306.935 192.718 306.935 192.718" stroke="black" stroke-width="4.32631" stroke-linecap="round"/>
<path d="M70.827 75.9616C70.827 75.9616 53.23 106.984 47.8435 128.851C41.3227 155.322 46.7621 199.802 46.7621 199.802" stroke="black" stroke-width="4.32631" stroke-linecap="round"/>
<path d="M38.6492 331.105C36.4323 336.621 37.7843 375.558 38.6492 378.965C39.514 382.372 41.2131 395.48 48.3293 402.327C52.4295 406.272 55.2662 408.781 60.8756 409.736C67.2076 410.814 70.9883 408.407 76.8288 405.734C82.4861 403.145 87.5902 400.65 89.9159 396.649C92.2417 392.647 89.9159 367.014 89.9159 367.014C89.9159 367.014 97.974 377.018 101.327 375.558C104.679 374.098 104.734 369.88 104.734 369.88C104.734 369.88 108.735 363.191 108.735 358.469C108.735 353.747 106.296 351.515 104.734 347.058C106.995 345.559 108.084 344.014 108.735 341.38C109.769 337.2 106.296 335.118 104.734 331.105C106.086 328.293 106.086 320.83 104.734 318.018C103.381 315.206 95.702 310.663 89.9159 309.474C84.1298 308.284 67.4736 313.746 67.4736 313.746C67.4736 313.746 99.7586 297.306 101.327 294.656C102.894 292.006 104.03 287.139 101.327 284.976C98.623 282.813 83.029 288.907 74.8283 293.142C66.6276 297.377 49.3031 312.286 49.3031 312.286C49.3031 312.286 40.866 325.589 38.6492 331.105Z" fill="#FFCFA7"/>
<path d="M104.734 331.105C106.086 328.293 106.086 320.83 104.734 318.018C103.381 315.206 95.702 310.663 89.9159 309.474C84.1298 308.284 67.4736 313.746 67.4736 313.746C67.4736 313.746 99.7586 297.306 101.327 294.656C102.894 292.006 104.03 287.139 101.327 284.976C98.623 282.813 83.029 288.907 74.8283 293.142C66.6276 297.377 49.3031 312.286 49.3031 312.286C49.3031 312.286 40.866 325.589 38.6492 331.105C36.4323 336.621 37.7843 375.558 38.6492 378.965C39.514 382.372 41.2131 395.48 48.3293 402.327C52.4295 406.272 55.2662 408.781 60.8756 409.736C67.2076 410.814 70.9883 408.407 76.8288 405.734C82.4861 403.145 87.5902 400.65 89.9159 396.649C92.2417 392.647 89.9159 367.014 89.9159 367.014C89.9159 367.014 97.974 377.018 101.327 375.558C104.679 374.098 104.734 369.88 104.734 369.88C104.734 369.88 108.735 363.191 108.735 358.469C108.735 353.747 106.296 351.515 104.734 347.058M104.734 331.105C93.8361 331.105 76.8288 331.105 76.8288 331.105M104.734 331.105C106.296 335.118 109.769 337.2 108.735 341.38C108.084 344.014 106.995 345.559 104.734 347.058M104.734 347.058C95.3777 347.058 80.7766 347.058 80.7766 347.058" stroke="black" stroke-width="2.16315"/>
<path d="M334.028 388.483C351.42 436.332 353.677 495.379 352.631 518.921C253.991 537.578 75.4231 524.329 75.4231 523.572C71.5294 508.051 74.666 490.962 75.4231 488.637C45.1389 519.678 21.885 499.507 21.0739 500.264C-25.5421 455.216 35.0803 380.696 36.5945 380.696C48.9785 435.045 88.6183 399.353 88.6183 400.867C155.352 493.234 269.566 383.021 269.566 380.696C315.371 318.559 335.542 388.483 334.028 388.483Z" fill="#A589C1" stroke="black" stroke-width="5.40788"/>
<path d="M73.9082 491.72C79.5865 489.665 90.7916 469.244 90.1859 404.004" stroke="black" stroke-width="5.40788"/>
<path d="M274.216 528.223C272.125 512.432 267.64 467.341 266.429 413.305" stroke="black" stroke-width="5.40788"/>
<path d="M148.538 319.424C123.655 318.602 87.5911 304.336 87.5911 304.336C87.5911 304.336 104.896 293.683 104.139 289.681C103.382 285.679 102.679 285.787 100.57 284.111C98.4609 282.435 77.3701 293.25 72.9357 293.358C68.5012 293.467 51.7051 252.356 48.2757 223.705C44.6189 193.154 46.4208 174.17 57.4691 145.453C65.6225 124.26 71.3911 111.491 87.9155 95.9167C108.817 76.2179 126.389 64.6716 155.081 65.957C191.85 67.6043 206.3 95.0876 229.764 123.443C249.602 147.415 263.438 162.503 268.16 193.259C271.63 215.859 270.498 230.211 262.157 251.501C253.42 273.807 244.126 286.073 224.681 300.064C199.776 317.984 179.203 320.438 148.538 319.424Z" fill="#FFCFA7" stroke="black" stroke-width="4.32631"/>
<path d="M146.862 265.995C140.133 264.812 135.127 266.244 130.043 270.808C124.959 275.371 140.426 282.742 148.917 283.732C154.432 284.376 161.301 283.787 162.977 281.623C164.654 279.46 155.496 267.513 146.862 265.995Z" fill="#CC6541" stroke="black" stroke-width="2.16315" stroke-linecap="round"/>
<path d="M76.7754 132.907C76.7754 132.907 96.3333 135.102 105.653 128.526C111.208 124.607 116.686 115.061 116.686 115.061" stroke="black" stroke-width="5.40788" stroke-linecap="round"/>
<path d="M177.849 117.927C177.849 117.927 189.025 130.312 198.615 133.826C208.185 137.333 224.681 135.124 224.681 135.124" stroke="black" stroke-width="5.40788" stroke-linecap="round"/>
<path d="M135.072 219.162C135.072 219.162 128.416 219.517 126.149 222.461C124.377 224.763 124.307 226.808 124.473 229.708C124.606 232.036 124.524 233.767 126.149 235.44C128.063 237.41 133.017 236.954 133.017 236.954" stroke="black" stroke-width="5.40788" stroke-linecap="round"/>
<path d="M79.9435 168.3C84.7507 162.325 88.7159 158.433 96.0934 157.761C105.545 156.9 111.54 162.565 117.083 170.732C123.052 179.526 123.61 187.473 121.515 198.078C119.785 206.839 118.146 213.493 110.868 218.021C104.797 221.798 99.7371 221.827 92.9347 219.913C87.1354 218.28 83.9605 215.939 79.9435 211.211C74.8455 205.211 73.1758 200.084 72.6582 192.025C72.0337 182.303 73.9799 175.712 79.9435 168.3Z" fill="white"/>
<path d="M220.583 169.922C215.776 163.948 211.811 160.055 204.433 159.383C194.981 158.523 188.986 164.188 183.443 172.354C177.474 181.148 176.916 189.095 179.011 199.701C180.741 208.461 182.381 215.115 189.659 219.643C195.729 223.421 200.789 223.45 207.592 221.535C213.391 219.902 216.566 217.562 220.583 212.834C225.681 206.834 227.351 201.707 227.868 193.648C228.493 183.926 226.547 177.334 220.583 169.922Z" fill="white"/>
<path d="M114.521 183.957C112.166 178.787 109.44 174.239 103.76 174.169C98.0006 174.098 95.3945 178.852 92.7277 183.957C89.2563 190.602 89.4078 196.433 92.7277 203.155C94.4807 206.704 95.6438 209.239 99.2172 210.942C102.896 212.696 106.125 212.982 109.654 210.942C113.933 208.469 114.954 202.614 115.387 200.884C115.819 199.153 117 189.396 114.521 183.957Z" fill="#3B220F"/>
<path d="M208.3 183.904C205.944 178.734 203.219 174.185 197.538 174.115C191.779 174.044 189.173 178.799 186.506 183.904C183.035 190.549 183.186 196.379 186.506 203.102C188.259 206.651 189.422 209.185 192.996 210.889C196.675 212.643 199.904 212.929 203.433 210.889C207.711 208.416 208.732 202.561 209.165 200.83C209.598 199.1 210.778 189.342 208.3 183.904Z" fill="#3B220F"/>
<path d="M70.0157 195.855C70.0157 195.855 69.3679 185.702 73.0981 177.197C78.1318 165.72 84.8576 155.7 97.3794 156.215C105.481 156.547 114.631 161.136 114.631 161.136" stroke="black" stroke-width="5.40788" stroke-linecap="round"/>
<path d="M232.143 197.334C232.143 197.334 232.791 187.181 229.061 178.676C224.027 167.199 217.302 157.179 204.78 157.694C196.678 158.026 187.528 162.615 187.528 162.615" stroke="black" stroke-width="5.40788" stroke-linecap="round"/>
</svg>
