<svg width="326" height="528" viewBox="0 0 326 528" fill="none" xmlns="http://www.w3.org/2000/svg">
<path d="M165.171 3C342.03 8.06178 333.103 192.907 306.533 284.697C309.363 296.269 314.926 319.621 314.536 320.443C324.79 360.721 313.473 366.139 306.533 363.814C296.582 340.614 279.006 363.814 279.493 363.814C260.728 387.987 145.27 449.691 146.73 447.744C129.424 428.492 39.1669 355.972 41.1678 356.459C16.0211 333.313 12.5601 360.894 12.5601 359.379C-9.12553 333.692 25.7553 284.697 25.9716 284.697C-30.8111 -13.8185 165.171 4.08158 165.171 3Z" fill="#D8CDE4" stroke="black" stroke-width="5.40788"/>
<path d="M3.63736 451.097C1.77705 436.604 8.1259 382.796 11.5329 357.703C17.8493 338.148 33.1644 349.555 40.0324 357.703C54.9089 371.93 83.4826 399.638 84.9334 402.509C86.8917 400.695 109.543 389.252 110.672 387.483C110.668 387.417 110.664 387.351 110.659 387.284C110.731 387.32 110.733 387.387 110.672 387.483C113.689 433.604 151.868 424.817 152.624 426.329C162.056 415.773 166.865 406.212 168.091 402.751C171.065 416.703 182.043 430.709 180.583 430.709C220.602 437.761 224.225 409.132 221.034 393.936C225.216 397.126 233.873 403.356 235.041 402.751C261.539 388.041 274.789 368.897 275.492 370.357C296.096 337.964 306.425 361.543 307.128 362.3C321.08 426.329 321.837 451.097 321.134 451.097C332.923 529.62 260.079 523.455 260.782 524.915C134.238 526.375 51.8216 517.56 52.5246 516.046C6.12497 514.532 3.15065 449.691 3.63736 451.097Z" fill="#A589C1" stroke="black" stroke-width="5.40788"/>
<path d="M66.8018 519.237C96.1846 505.392 153.934 467.883 149.867 428.6" stroke="black" stroke-width="5.40788"/>
<path d="M33.3799 449.367C48.2155 430.799 84.0734 392.649 108.82 388.582" stroke="black" stroke-width="5.40788"/>
<path d="M178.204 423.517C179.718 455.766 201.793 520.772 277.98 522.806" stroke="black" stroke-width="5.40788"/>
<path d="M290.147 453.422C279.512 439.578 251.048 408.245 222.278 393.665" stroke="black" stroke-width="5.40788"/>
<path d="M60.4743 253.115C50.7039 233.203 47.0064 219.38 49.6585 197.359C52.0897 177.173 59.5482 166.846 70.1544 149.5C79.0169 135.005 86.0377 128.236 97.1397 115.376C108.503 102.212 117.257 91.2567 127.694 82.9826C138.131 74.7086 155.132 67.9972 174.094 68.5977C194.446 69.2422 205.666 76.6923 222.332 88.3905C238.679 99.864 245.838 109.466 256.834 126.138C269.517 145.365 274.892 157.944 279.872 180.433C284.317 200.505 287.035 212.893 282.738 232.997C278.484 252.902 272.31 264 258.998 279.397C247.262 292.97 238.798 299.957 222.332 307.085C199.325 317.045 183.269 314.021 158.303 311.736C135.094 309.612 120.37 309.341 100.384 297.351C80.4323 285.381 70.7236 274.003 60.4743 253.115Z" fill="#FFCFA7" stroke="black" stroke-width="6.48946" stroke-linecap="round"/>
<path d="M140.998 272.312C140.998 272.312 157.776 259.229 170.147 259.82C181.289 260.353 195.834 272.312 195.834 272.312" stroke="black" stroke-width="6.48946" stroke-linecap="round"/>
<path d="M250.778 199.901C252.169 194.113 249.588 184.705 249.588 184.705L233.959 177.134L232.445 183.191L228.065 197.305L225.685 203.686H207.19C207.19 203.686 211.857 211.592 213.896 213.15C217.829 216.156 226.062 218.473 230.985 217.963C236.586 217.383 239.922 215.662 244.018 211.798C247.905 208.131 249.53 205.097 250.778 199.901Z" fill="#FDEFD8"/>
<path d="M78.5907 227.048C78.7345 218.831 89.8931 208.229 89.8931 208.229C89.8931 208.229 94.8385 212.129 96.9775 215.422C98.6878 218.054 98.9832 219.932 99.6814 222.993C100.992 228.737 102.878 233.131 99.6814 238.081C96.6839 242.722 92.4698 245.358 87.027 244.408C79.6019 243.111 78.4588 234.585 78.5907 227.048Z" fill="#BDD6DB" stroke="black" stroke-width="0.108158"/>
<path d="M84.0528 195.737C82.5205 190.522 83.2957 181.839 83.2957 181.839L93.2462 175.457L102.71 174.971V191.897L114.445 207.526L130.128 203.092C130.128 203.092 126.569 209.118 123.26 212.015C118.324 216.335 114.515 219.027 107.956 218.937C104.268 218.886 102.04 218.349 98.8163 216.557C94.6606 214.247 92.3644 212.021 89.5688 208.175C86.4668 203.907 85.5401 200.799 84.0528 195.737Z" fill="#F4E3C9" stroke="black" stroke-width="0.108158"/>
<path d="M238.177 171.239C242.612 175.187 255.98 182.001 254.617 185.407C253.255 188.814 237.528 177.674 235.203 179.513C232.878 181.352 236.364 189.851 232.986 197.359C229.622 204.835 226.42 212.391 218.222 212.284C210.128 212.179 206.888 204.857 203.837 197.359C200.741 189.749 201.221 184.11 203.837 176.322C206.688 167.836 212.598 159.125 218.222 158.476C223.847 157.827 233.743 167.29 238.177 171.239Z" fill="#432C1C"/>
<path d="M65.558 348.726C54.4538 341.173 30.8286 316.928 25.1611 280.37" stroke="black" stroke-width="5.40788"/>
<path d="M29.1621 222.29C38.7881 254.683 71.4409 321.773 125.044 330.988" stroke="black" stroke-width="5.40788"/>
<path d="M251.481 342.074C271.292 327.581 311.184 291.316 312.266 262.2" stroke="black" stroke-width="5.40788"/>
<path d="M274.734 95.5829C283.964 110.419 299.654 154.28 288.579 211.041" stroke="black" stroke-width="5.40788"/>
<path d="M218.222 179.73C218.428 176.57 220.749 173.63 223.9 173.943C226.785 174.23 228.368 176.836 228.551 179.73C228.749 182.876 227.038 186.023 223.9 186.327C220.516 186.655 218 183.122 218.222 179.73Z" fill="#DED3C1"/>
<path d="M119.582 155.287C110.821 152.799 75.8319 177.405 77.9411 181.677C80.0502 185.949 99.4104 174.647 100.816 175.782C102.222 176.917 99.0219 190.241 102.601 198.495C105.154 204.382 106.786 207.596 112.984 209.257C118.052 210.614 122.221 208.547 126.72 205.85C132.89 202.151 134.625 197.172 136.671 190.276C139.048 182.258 138.932 176.377 135.156 168.914C131.508 161.703 128.342 157.774 119.582 155.287Z" fill="#3B220F"/>
<path d="M117.744 175.511C117.493 172.22 120.294 169.139 123.585 169.401C126.652 169.645 128.793 172.443 128.56 175.511C128.347 178.327 126.399 180.531 123.585 180.757C120.529 181.002 117.978 178.568 117.744 175.511Z" fill="#D9D9D9"/>
<path d="M195.455 111.753C195.455 111.753 208.15 126.648 219.088 131.87C228.394 136.313 244.829 137.764 244.829 137.764" stroke="black" stroke-width="5.40788" stroke-linecap="round"/>
<path d="M95.4629 133.763C95.4629 133.763 108.77 132.923 116.716 130.139C129.745 125.576 145.594 109.752 145.594 109.752" stroke="black" stroke-width="5.40788" stroke-linecap="round"/>
<path d="M168.902 219.315C168.902 219.315 176.446 220.392 178.204 224.074C179.983 227.801 175.933 234.403 175.933 234.403" stroke="black" stroke-width="4.32631" stroke-linecap="round"/>
<path d="M63.2306 97.8509C63.284 97.7519 63.2957 97.6346 63.2642 97.5254C63.2327 97.4162 63.1607 97.3241 63.0628 97.2688C62.9649 97.2134 62.8489 97.1991 62.739 97.2283C62.6293 97.2576 62.5348 97.3281 62.4774 97.4249C61.5279 99.0437 60.6097 100.68 59.6971 102.343C54.9044 111.222 50.27 120.262 47.3585 130.122C44.5371 139.605 43.8693 149.68 43.4307 159.369C43.4307 159.369 43.4306 159.369 43.4306 159.369C43.4306 159.369 43.4306 159.369 43.4306 159.369C43.4306 159.369 43.4306 159.369 43.4306 159.369C43.4306 159.369 43.4306 159.37 43.4306 159.37C43.4306 159.37 43.4306 159.37 43.4306 159.37C43.4308 159.37 43.4307 159.37 43.4307 159.37C43.3848 160.725 43.3319 162.078 43.2689 163.433C43.0714 167.783 43.05 172.104 43.1149 176.427C43.2518 184.741 43.5828 193.025 44.2116 201.304C44.2161 201.362 44.2207 201.42 44.2253 201.477C44.379 203.356 44.6771 205.249 45.123 207.08C45.2194 207.472 45.4335 207.837 45.7563 208.091C46.0787 208.345 46.4785 208.468 46.8767 208.431C47.2749 208.394 47.6456 208.201 47.9162 207.892C48.1871 207.584 48.331 207.186 48.354 206.782C48.4684 204.938 48.4577 203.026 48.3224 201.162C48.3183 201.105 48.314 201.047 48.3096 200.99C47.6852 192.771 47.0512 184.558 46.7913 176.342C46.6622 172.073 46.5942 167.81 46.7471 163.579C46.7979 162.211 46.8437 160.848 46.8897 159.487C46.8898 159.487 46.8898 159.487 46.8898 159.487C46.8899 159.487 46.8898 159.487 46.8898 159.487C46.8898 159.487 46.8899 159.487 46.8899 159.487C46.8899 159.487 46.8899 159.487 46.8899 159.487C46.8899 159.487 46.8899 159.487 46.8899 159.486C46.8899 159.486 46.8898 159.486 46.8898 159.486C46.9482 149.691 47.1939 140.11 49.5796 130.697C51.9944 121.102 56.2499 111.851 60.6629 102.848C61.5044 101.16 62.3564 99.4883 63.2306 97.8509Z" fill="black"/>
<path d="M177.717 319.145C219.639 324.596 224.279 372.503 221.359 395.774C224.766 436.198 183.017 434.062 184.477 432.602C175.954 426.762 170.579 407.528 168.957 398.641C163.603 418.974 152.463 425.842 153.923 425.842C86.4864 426.816 121.421 340.452 121.908 339.965C127.705 319.761 161.53 317.667 177.717 319.145Z" fill="#FFCFA7" stroke="black" stroke-width="5.40788"/>
<path d="M137.915 346.833C144.657 341.876 161.731 332.632 176.095 335.314" stroke="black" stroke-width="5.40788"/>
<path d="M148.839 361.434C155.851 358.045 172.742 352.284 184.206 356.351" stroke="black" stroke-width="5.40788"/>
<path d="M169.064 401.561C162.214 391.665 155.653 371.807 184.206 371.547C183.125 372.358 197.942 369.546 182.53 354.404C181.989 354.404 192.589 340.939 174.094 335.044C173.283 334.774 181.394 322.065 155.869 319.577" stroke="black" stroke-width="5.40788"/>
<path d="M168.037 403.129C171.336 400.029 177.901 392.876 177.771 389.069" stroke="black" stroke-width="5.40788"/>
</svg>
