<svg width="377" height="540" viewBox="0 0 377 540" fill="none" xmlns="http://www.w3.org/2000/svg">
<path d="M280.007 6.94992C398.505 56.8322 380.107 186.726 356.096 245.437C352.401 256.199 345.01 277.517 345.01 276.695C333.924 307.953 343.983 323.257 345.01 325.312C265.298 513.614 124.639 331.531 124.639 330.503C88.4062 281.887 53.255 348.079 53.255 349.107C39.7894 331.531 54.2825 305.681 53.255 305.681C72.2908 275.094 79.1408 241.201 80.1863 228.078C74.0213 172.215 80.1863 157.722 80.1863 154.585C113.337 -38.9089 279.845 8.73452 280.007 6.94992Z" fill="#D8CDE4" stroke="black" stroke-width="4.32631" stroke-linecap="round"/>
<path d="M269.841 64.0571C205.725 59.7308 160.674 142.399 146.163 184.274C133.887 322.878 264.379 315.415 261.675 314.063C354.745 302.545 355.448 244.085 355.448 245.437C350.04 205.365 354.096 158.479 355.448 160.48C326.948 57.1891 270.49 64.0571 269.841 64.0571Z" fill="#FFCFA7" stroke="black" stroke-width="4.32631" stroke-linecap="round"/>
<path d="M63.749 513.429C-41.3109 465.274 13.3696 382.738 53.85 347.484C88.3739 288.084 117.086 317.038 127.127 338.94C280.116 498.094 339.765 337.858 339.765 338.94C339.765 340.022 376.322 513.452 374.159 513.452C298.881 547.089 111.768 528.216 111.768 527.134C110.038 491.875 106.288 433.521 104.63 408.752C93.5758 418.988 84.4075 430.189 79.8949 436.498C89.6889 449.51 101.608 461.645 100.953 461.645C60.7357 484.04 63.0896 512.364 63.749 513.429C63.7661 513.437 63.7833 513.444 63.8005 513.452C63.7854 513.467 63.7679 513.459 63.749 513.429Z" fill="#A589C1"/>
<path d="M79.8949 436.498C89.6889 449.51 101.608 461.645 100.953 461.645C59.5823 484.682 63.2597 513.993 63.8005 513.452C-41.3288 465.301 13.3629 382.744 53.85 347.484C88.3739 288.084 117.086 317.038 127.127 338.94C280.116 498.094 339.765 337.858 339.765 338.94C339.765 340.022 376.322 513.452 374.159 513.452C298.881 547.089 111.768 528.216 111.768 527.134C110.038 491.875 106.288 433.521 104.63 408.752M79.8949 436.498C74.3414 429.12 69.4713 421.46 67.9645 415.57C69.5328 415.57 65.1472 418.706 79.8949 436.498ZM79.8949 436.498C84.4075 430.189 93.5758 418.988 104.63 408.752M104.63 408.752C111.609 402.289 119.341 396.211 127.127 391.991C125.558 393.019 108.307 405.247 104.63 408.752Z" stroke="black" stroke-width="4.32631" stroke-linecap="round"/>
<path d="M326.678 380.905C328.499 393.127 330.258 422.232 322.73 440.878C323.217 439.364 314.781 483.925 326.678 526.593" stroke="black" stroke-width="4.32631" stroke-linecap="round"/>
<path d="M79.3203 223.59C81.2852 236.19 87.8107 265.847 98.1938 283.671" stroke="black" stroke-width="4.32631" stroke-linecap="round"/>
<path d="M100.25 462.348C119.24 461.068 155.062 463.438 146.5 483.139C147.041 483.802 157.55 504.986 144.216 509.396C146.487 509.775 148.867 529.459 133.022 527.134C132.643 527.134 138.376 556.391 63.206 513.993C62.8275 514.75 60.5562 482.411 100.25 462.348Z" fill="#FFCFA7" stroke="black" stroke-width="4.32631" stroke-linecap="round"/>
<path d="M133.833 527.296C130.642 523.367 120.583 514.956 105.874 512.749" stroke="black" stroke-width="4.32631" stroke-linecap="round"/>
<path d="M146.162 508.747C142.053 505.124 130.631 497.878 117.825 497.878" stroke="black" stroke-width="4.32631" stroke-linecap="round"/>
<path d="M147.461 483.871C142.666 480.987 130.578 475.77 120.584 477.976" stroke="black" stroke-width="4.32631" stroke-linecap="round"/>
<path d="M288.39 147.068C286.84 154.369 293.312 162.308 331.599 135.658" stroke="black" stroke-width="4.32631" stroke-linecap="round"/>
<path d="M259.673 139.984C263.08 152.242 254.828 168.235 194.562 134.143" stroke="black" stroke-width="4.32631" stroke-linecap="round"/>
<path d="M276.059 281.724H226.307C194.346 238.353 257.727 237.704 258.267 238.245C296.858 245.773 286.208 270.368 276.059 281.724Z" fill="#3C220D" stroke="black" stroke-width="2.16315" stroke-linecap="round"/>
<path d="M281.251 225.753C286.515 220.759 292.5 210.124 274.329 207.528" stroke="black" stroke-width="4.32631" stroke-linecap="round"/>
<path d="M228.741 244.518C262.572 245.384 272.436 270.404 273.139 282.806C257.367 282.806 225.885 282.363 226.145 280.589C207.163 252.198 229.065 245.275 228.741 244.518Z" fill="#DA6444" stroke="black" stroke-width="2.16315" stroke-linecap="round"/>
<path d="M114.418 147.555C111.588 201.832 137.542 322.987 264 373.388" stroke="black" stroke-width="4.32631" stroke-linecap="round"/>
<path d="M145.946 187.141C143.837 165.347 144.291 113.929 162.981 82.6062" stroke="black" stroke-width="4.32631" stroke-linecap="round"/>
<path d="M325.001 292.486C312.941 308.295 284.236 340.919 265.893 344.943" stroke="black" stroke-width="4.32631" stroke-linecap="round"/>
<mask id="mask0_1330_5903" style="mask-type:alpha" maskUnits="userSpaceOnUse" x="152" y="164" width="115" height="58">
<rect x="156.604" y="164.265" width="109.996" height="48.2383" transform="rotate(4.63451 156.604 164.265)" fill="#D9D9D9"/>
</mask>
<g mask="url(#mask0_1330_5903)">
<ellipse cx="209.434" cy="173.134" rx="28.824" ry="33.637" fill="#FDEDD4"/>
<ellipse cx="217.437" cy="178.109" rx="16.9267" ry="24.1192" fill="#3C220F"/>
</g>
<mask id="mask1_1330_5903" style="mask-type:alpha" maskUnits="userSpaceOnUse" x="257" y="159" width="114" height="60">
<rect x="257.079" y="166.503" width="110.429" height="52.3483" transform="rotate(-3.52008 257.079 166.503)" fill="#D9D9D9"/>
</mask>
<g mask="url(#mask1_1330_5903)">
<ellipse cx="314.566" cy="175.946" rx="26.3364" ry="31.582" fill="#FDEDD4"/>
<ellipse cx="310.239" cy="175.946" rx="14.7635" ry="24.1192" fill="#3C220F"/>
</g>
<path d="M176.555 159.885L241.125 169.24" stroke="black" stroke-width="5.40788" stroke-linecap="round"/>
<path d="M288.769 164.806L342.198 161.237" stroke="black" stroke-width="5.40788" stroke-linecap="round"/>
<path d="M74.085 103.798C59.8196 86.4731 55.7511 82.4046 50.9943 73.2682C43.8962 59.6351 44.5142 47.3887 46.0284 44.8446C48.6116 40.5045 54.7008 41.5969 56.7351 41.7652C57.77 41.8508 58.7693 42.2699 59.4576 42.948C62.2934 45.7418 62.1751 56.1376 61.186 73.151C60.981 76.6765 56.1386 77.2654 53.0591 77.7854C49.9797 78.3055 47.2877 78.3055 45.228 77.4642C41.3037 75.8615 39.7625 71.5246 38.5745 66.7882C36.7556 59.5358 38.0494 53.5068 40.2468 51.4674C41.4743 50.3282 44.1267 50.774 45.6766 51.7835C51.8652 55.8142 50.6323 62.9898 49.9593 66.3854C48.7893 72.2883 39.4566 77.245 33.9962 81.0178C31.4758 82.7592 27.5365 80.6915 24.6508 79.1671C22.3142 77.9328 22.0812 71.5552 22.9224 63.7444C23.4698 58.6616 28.8621 56.9023 32.4208 55.2046C36.056 53.4703 39.4056 53.8331 41.4398 54.3378C43.9012 54.9485 44.5142 61.9396 44.1777 70.4284C43.9708 75.6467 40.4559 79.3048 36.5556 82.7003C30.3339 88.1168 21.4286 87.1359 14.4591 86.8096C5.13782 86.3732 7.80563 65.0904 9.32496 56.2446C10.0584 51.9745 14.923 49.4281 18.9915 47.0522C22.8002 44.8281 26.8227 44.656 29.8766 44.9925C32.4472 45.2757 34.6437 48.0413 37.0195 50.7537C39.1297 53.1627 39.4158 56.8717 38.911 60.099C38.7087 61.3928 37.3968 61.6439 36.5403 61.1442C34.4698 59.9364 33.6444 56.9023 32.6247 53.3538C28.8218 40.1198 37.0093 29.4015 42.4544 23.4313C43.679 22.0886 45.1668 21.2237 47.8791 20.7036C50.5915 20.1836 54.6294 20.1836 57.3826 21.6978C68.9736 28.0729 62.1955 45.3086 60.3295 50.0807C59.931 51.0996 58.1371 50.774 57.1073 50.1011C54.8963 48.6562 54.711 44.0034 55.384 39.2516C56.3996 32.0809 65.5604 31.7468 70.4957 30.5538C71.9919 30.1921 74.0442 30.3804 75.589 30.8851C78.4116 31.8074 79.5199 34.4489 80.3662 36.6515C81.3709 39.2661 82.2424 42.9327 81.4012 47.1746C80.6034 51.1971 75.4615 52.4667 72.2393 53.4864C70.7346 53.9626 69.3536 53.8331 68.3238 52.6554C67.2939 51.4776 66.6209 49.1222 67.6202 47.9087C68.6195 46.6953 71.3114 46.6953 73.2029 47.3683C75.0945 48.0413 76.1039 49.3873 76.624 50.5854C78.6436 55.2385 79.1834 68.3534 77.8323 77.0971C76.924 82.9752 65.6216 81.3645 60.0185 80.6915C51.137 79.6248 53.6913 58.9927 54.8742 50.9678C55.3289 47.8824 58.0963 45.6858 60.8087 43.9881C62.1055 43.1763 63.5211 42.9633 64.8874 43.1264C67.7057 43.4629 69.6595 45.6654 71.0157 48.2044C72.8055 51.5552 73.0653 56.5251 72.897 61.445C72.5875 70.4975 60.5232 76.5924 52.8705 82.7003C49.6573 85.2648 46.5637 85.4432 44.0247 85.275C42.4894 85.1732 40.4762 84.7702 38.4267 82.7462C29.5315 73.9617 31.605 65.7634 31.4266 55.7399C31.3622 52.126 33.2875 49.7646 35.3218 48.0668C37.0705 46.6073 39.7421 46.6953 42.4544 47.3683C45.7362 48.1826 47.563 52.793 49.0926 57.871C51.1449 64.6847 47.2571 72.4933 43.0153 77.9282C38.1364 84.1793 29.9123 82.3842 27.3682 81.7112C19.9097 79.7382 20.3885 64.4174 20.3783 55.9031C20.3758 53.8261 21.3878 51.8345 23.417 50.2897C28.1657 46.6744 35.643 46.6953 41.2461 46.8636C43.4896 46.9309 44.4938 47.3683 45.5186 48.5511C52.3011 56.3797 50.6323 77.8568 47.925 87.4622C47.1385 90.253 45.2076 93.5803 41.4857 96.6394C36.9785 100.344 29.586 96.3334 24.8343 93.7893C17.8934 90.0731 13.9441 83.4243 11.0431 79.0039C7.43839 73.5113 9.172 66.4364 9.33006 57.4377C9.46784 49.5929 20.3273 44.3501 26.3129 42.4483C33.9867 40.0102 43.4843 41.2502 45.3503 42.7746C47.2158 44.2986 49.9287 50.7231 53.3293 61.3991C56.8825 72.5539 52.0088 81.6806 48.9549 85.2495C47.7643 86.6408 46.5739 86.4629 44.5397 84.9487C39.0833 80.8872 35.0107 74.5938 32.9714 68.6644C30.7033 62.07 32.951 55.5564 36.6626 51.3145C42.6034 44.5251 53.3242 46.6953 59.4219 47.0318C66.9223 47.4457 73.7179 50.7537 78.1331 54.8222C81.6054 58.0219 81.2227 64.6723 80.8862 70.9536C80.6694 75.0012 78.5104 77.2756 76.1447 79.8146C68.5559 87.9595 59.5035 88.1556 54.5581 87.8293C42.9696 87.0647 37.0501 66.4364 34.6641 50.0042C32.9365 38.107 35.3268 30.3906 37.3611 28.6928C41.1002 25.5722 47.8791 24.609 57.0563 24.7671C60.7829 24.8312 63.1948 29.3403 65.7389 34.0819C68.8005 39.7878 68.9866 45.9917 68.1453 49.7289C67.4748 52.7074 61.8692 51.7937 58.4736 51.1207C55.6516 50.5614 55.3942 46.7055 54.8844 44.6713C54.6317 43.6631 54.711 42.637 55.0475 41.6122C57.513 34.1037 72.6778 27.6884 80.8557 26.1283C84.3651 25.4588 85.9745 31.7162 86.9941 36.9676C89.3752 49.2299 80.2235 56.8717 77.8323 60.7873C76.1447 62.3169 73.7587 63.6832 71.2146 64.7029C70.0164 65.0496 69.007 65.0496 67.9669 65.0496" stroke="#3C220D" stroke-width="3.24473" stroke-linecap="round"/>
</svg>
