<svg width="427" height="524" viewBox="0 0 427 524" fill="none" xmlns="http://www.w3.org/2000/svg">
<path d="M424.458 507.764C419.699 443.778 398.68 371.396 388.766 343.203C381.574 320.976 368.108 331.954 368.811 334.983C246.647 489.756 156.768 383.275 157.687 384.194C140.252 346.685 111.918 333.739 99.931 331.954C79.4711 342.229 38.8219 362.779 39.9034 362.779C26.2756 466.448 78.7861 476.02 80.1381 477.372C113.97 480.66 126.394 459.418 128.376 448.386C127.006 470.612 124.158 514.924 123.726 514.362C277.958 532.316 425.161 508.413 424.458 507.764Z" fill="#A589C1" stroke="black" stroke-width="4.32631" stroke-linecap="round"/>
<path d="M272.442 4.88553C403.399 16.7396 399.798 185.581 381.627 268.52C376.436 285.522 383.79 301.526 388.117 307.402C394.606 337.038 388.117 346.231 388.117 347.15C382.968 327.898 374.867 328.637 371.46 331.414C226.259 506.25 149.413 372.135 149.413 371.216C130.161 338.638 107.466 331.107 98.5246 331.414L79.1104 307.402C91.4403 294.442 115.916 268.52 115.181 268.52C93.8739 211.142 97.6053 137.162 98.5246 139.92C140.111 -28.4811 272.442 6.72421 272.442 4.88553Z" fill="#D8CDE4" stroke="black" stroke-width="4.32631" stroke-linecap="round"/>
<path d="M94.3061 265.708C94.3061 265.167 111.828 233.855 106.906 296.965C106.906 298.642 105.771 341.364 87.7085 362.779C89.9257 363.374 61.9129 395.713 30.6554 346.339C28.4922 346.339 24.1118 335.415 4.91384 301.94C3.23896 301.94 -1.08086 269.661 12.0156 274.509C11.5672 273.345 7.45583 252.188 25.1934 255.324C23.9136 244.346 25.8532 226.998 43.8506 245.428C44.9322 245.969 48.285 208.654 66.3474 241.588C66.3474 240.507 87.7085 283.238 87.7085 283.238C90.3136 278.181 92.7096 272.268 94.3061 265.708Z" fill="#FFCFA7"/>
<path d="M66.3474 327.141C66.3654 322.959 67.8183 312.064 73.4858 301.94C73.8685 302.706 81.4014 295.481 87.7085 283.238M87.7085 283.238C90.3136 278.181 92.7096 272.268 94.3061 265.708C94.3061 265.167 111.828 233.855 106.906 296.965C106.906 298.642 105.771 341.364 87.7085 362.779C89.9257 363.374 61.9129 395.713 30.6554 346.339C28.4922 346.339 24.1118 335.415 4.91384 301.94C3.2374 301.94 -1.08891 269.601 12.0522 274.522C12.0522 275.604 6.53623 252.026 25.1934 255.324C23.9136 244.346 25.8532 226.998 43.8506 245.428C44.9322 245.969 48.285 208.654 66.3474 241.588C66.3474 240.507 87.7085 283.238 87.7085 283.238Z" stroke="black" stroke-width="4.32631" stroke-linecap="round"/>
<path d="M12.0527 273.981C16.0906 277.821 24.8153 288.788 27.4111 301.94" stroke="black" stroke-width="4.32631" stroke-linecap="round"/>
<path d="M25.7344 255.325C30.3311 260.065 40.1734 273.279 42.7692 288.204" stroke="black" stroke-width="4.32631" stroke-linecap="round"/>
<path d="M43.3105 244.887C47.5107 249.989 56.5707 263.707 59.2097 277.767" stroke="black" stroke-width="4.32631" stroke-linecap="round"/>
<path d="M118.858 427.457C120.427 413.054 118.664 375.531 99.0654 340.661" stroke="black" stroke-width="4.32631" stroke-linecap="round"/>
<path d="M128.538 454.064C130.99 442.473 135.157 410.412 132.215 374.893" stroke="black" stroke-width="4.32631" stroke-linecap="round"/>
<path d="M359.185 517.174C355.832 488.675 350.132 419.681 354.155 371.702" stroke="black" stroke-width="4.32631" stroke-linecap="round"/>
<path d="M386.17 247.645C381.303 267.024 366.074 309.901 344.097 326.384" stroke="black" stroke-width="4.32631" stroke-linecap="round"/>
<path d="M336.742 262.787C319.058 298.173 272.983 368.944 230.152 368.944" stroke="black" stroke-width="4.32631" stroke-linecap="round"/>
<path d="M160.12 283.824C170.017 302.716 197.229 342.337 226.907 349.692" stroke="black" stroke-width="4.32631" stroke-linecap="round"/>
<path d="M115.722 266.897C116.479 277.587 126.505 308.387 160.553 346.069" stroke="black" stroke-width="4.32631" stroke-linecap="round"/>
<path d="M141.355 83.408C136.038 94.386 126.127 127.688 129.025 173.071" stroke="black" stroke-width="4.32631" stroke-linecap="round"/>
<path d="M340.852 86.1118C347.107 94.9447 358.611 124.151 354.588 170.313" stroke="black" stroke-width="4.32631" stroke-linecap="round"/>
<path d="M228.369 312.215C138.165 309.274 124.447 216.748 128.864 170.853C181.374 40.7939 243.781 59.451 244.7 56.693C306.675 46.5262 356.644 170.853 354.372 170.853C365.026 323.896 229.45 312.702 228.369 312.215Z" fill="#FFCFA7" stroke="black" stroke-width="4.32631" stroke-linecap="round"/>
<ellipse cx="188.892" cy="175.126" rx="24.8222" ry="33.637" fill="#FDEDD4"/>
<ellipse cx="192.892" cy="180.101" rx="16.9267" ry="24.1192" fill="#3C220F"/>
<path d="M207.494 147.113C193 138.334 163.538 133.204 161.635 182.913" stroke="black" stroke-width="5.40788" stroke-linecap="round"/>
<path d="M271.198 107.473C280.121 101.524 301.731 96.1707 316.787 122.345" stroke="black" stroke-width="5.40788" stroke-linecap="round"/>
<path d="M211.766 106.013C202.518 102.534 181.644 99.7397 172.126 116.396" stroke="black" stroke-width="5.40788" stroke-linecap="round"/>
<path d="M277.634 241.264C249.902 237.327 218.201 239.624 205.817 241.264C205.817 282.494 229.9 290.458 241.942 289.286C284.502 286.798 277.147 241.264 277.634 241.264Z" fill="#3C220D" stroke="black" stroke-width="2.16315" stroke-linecap="round"/>
<path d="M212.253 271.981C221.987 260.75 247.599 245.028 272.172 271.981C261.284 283.535 234.058 299.712 212.253 271.981Z" fill="#DA6444" stroke="black" stroke-width="2.16315" stroke-linecap="round"/>
<path d="M237.507 206.6C230.404 209.916 220.461 218.919 237.507 228.393" stroke="black" stroke-width="4.32631" stroke-linecap="round"/>
<ellipse cx="293.912" cy="178.478" rx="24.8222" ry="33.637" fill="#FDEDD4"/>
<ellipse cx="289.152" cy="182.48" rx="16.9267" ry="24.1192" fill="#3C220F"/>
<path d="M275.092 152.142C289.927 140.425 319.491 131.376 319.058 188.916" stroke="black" stroke-width="5.40788" stroke-linecap="round"/>
</svg>
